<svg width="16" height="26" viewBox="0 0 16 26" fill="none" xmlns="http://www.w3.org/2000/svg">
<path d="M15.3469 15.9266C15.9438 15.3298 16.029 14.4771 15.5174 13.6244C15.0911 12.9423 14.3237 12.6012 13.471 12.7717C13.1299 12.857 12.7888 13.0275 12.4478 13.2833C9.80445 15.074 6.22319 14.9887 3.57988 13.1981C3.40934 13.1128 3.2388 13.0275 3.06826 12.9423C2.13032 12.5159 1.19238 12.6865 0.680767 13.5392C0.0838902 14.3918 0.169148 15.3298 0.936561 16.0972C1.1071 16.2677 1.27763 16.353 1.3629 16.5235L1.44818 16.6088C2.64193 17.5467 4.09149 18.1436 5.96739 18.3994L4.8589 19.5079C3.92095 20.4459 2.89774 21.4691 1.95979 22.407C1.70398 22.6628 1.3629 23.0892 1.3629 23.6861C1.3629 24.4535 1.78925 25.2209 2.55666 25.562C2.81247 25.7325 3.06827 25.7325 3.32407 25.7325C3.75041 25.7325 4.26202 25.5619 4.60309 25.1356C5.88212 23.8566 6.90534 22.8334 7.92856 21.8102C8.01383 21.7249 8.01382 21.7249 8.01382 21.7249C8.01382 21.7249 8.09909 21.7249 8.09909 21.8102C8.78124 22.5776 9.54865 23.2597 10.2308 24.0271C10.5719 24.3682 10.9129 24.7093 11.254 25.0503C11.6804 25.4767 12.0214 25.6472 12.533 25.6472C13.3004 25.7325 14.1531 25.2209 14.4942 24.4535C14.8353 23.7713 14.6647 22.9186 14.0679 22.407C13.2152 21.5543 12.3625 20.6164 11.4245 19.7637L9.97499 18.3142C10.7424 18.2289 11.5951 18.0584 12.3625 17.7173C13.6415 17.2909 14.5795 16.6941 15.3469 15.9266Z" fill="#00FFA8"/>
<path d="M8.01382 13.5391C11.6803 13.5391 14.6647 10.64 14.6647 6.97348C14.6647 5.18285 13.9826 3.4775 12.7036 2.19847C11.4245 0.919452 9.80445 0.237305 8.09909 0.237305C4.43256 0.237305 1.53344 3.22169 1.44817 6.80295C1.44817 8.59358 2.13032 10.2137 3.40934 11.4927C4.6031 12.857 6.22319 13.5391 8.01382 13.5391ZM6.13792 5.01233C6.64953 4.50072 7.33167 4.2449 8.01382 4.2449C9.54865 4.2449 10.6571 5.43866 10.6571 6.88822C10.6571 8.42305 9.46338 9.53153 8.01382 9.53153C6.47899 9.53153 5.37051 8.33778 5.37051 6.88822C5.37051 6.20608 5.62631 5.52393 6.13792 5.01233Z" fill="#00FFA8"/>
<path d="M15.3469 15.9266C15.9438 15.3298 16.029 14.4771 15.5174 13.6244C15.0911 12.9423 14.3237 12.6012 13.471 12.7717C13.1299 12.857 12.7888 13.0275 12.4478 13.2833C9.80445 15.074 6.22319 14.9887 3.57988 13.1981C3.40934 13.1128 3.2388 13.0275 3.06826 12.9423C2.13032 12.5159 1.19238 12.6865 0.680767 13.5392C0.0838902 14.3918 0.169148 15.3298 0.936561 16.0972C1.1071 16.2677 1.27763 16.353 1.3629 16.5235L1.44818 16.6088C2.64193 17.5467 4.09149 18.1436 5.96739 18.3994L4.8589 19.5079C3.92095 20.4459 2.89774 21.4691 1.95979 22.407C1.70398 22.6628 1.3629 23.0892 1.3629 23.6861C1.3629 24.4535 1.78925 25.2209 2.55666 25.562C2.81247 25.7325 3.06827 25.7325 3.32407 25.7325C3.75041 25.7325 4.26202 25.5619 4.60309 25.1356C5.88212 23.8566 6.90534 22.8334 7.92856 21.8102C8.01383 21.7249 8.01382 21.7249 8.01382 21.7249C8.01382 21.7249 8.09909 21.7249 8.09909 21.8102C8.78124 22.5776 9.54865 23.2597 10.2308 24.0271C10.5719 24.3682 10.9129 24.7093 11.254 25.0503C11.6804 25.4767 12.0214 25.6472 12.533 25.6472C13.3004 25.7325 14.1531 25.2209 14.4942 24.4535C14.8353 23.7713 14.6647 22.9186 14.0679 22.407C13.2152 21.5543 12.3625 20.6164 11.4245 19.7637L9.97499 18.3142C10.7424 18.2289 11.5951 18.0584 12.3625 17.7173C13.6415 17.2909 14.5795 16.6941 15.3469 15.9266Z" fill="#00FFA8"/>
</svg>
