<svg width="26" height="17" viewBox="0 0 26 17" fill="none" xmlns="http://www.w3.org/2000/svg">
<path d="M13.8684 16.7126C5.31831 16.7126 0.441482 10.7347 0.238281 0.787598H4.52114C4.66181 8.08855 7.81925 11.1811 10.3202 11.8187V0.787598H14.3529V7.08427C16.8226 6.81327 19.4173 3.9439 20.2927 0.787598H24.3254C23.9956 2.42455 23.3381 3.97448 22.3941 5.34044C21.45 6.70641 20.2398 7.85902 18.839 8.72618C20.4026 9.51854 21.7836 10.6401 22.891 12.0167C23.9984 13.3934 24.8069 14.9939 25.2633 16.7126H20.8241C20.4145 15.2198 19.5819 13.8834 18.4308 12.8711C17.2796 11.8587 15.8611 11.2154 14.3529 11.0217V16.7126H13.8684Z" fill="#00FFA8"/>
</svg>
