<svg width="318" height="187" viewBox="0 0 318 187" fill="none" xmlns="http://www.w3.org/2000/svg">
<path d="M261.032 184.247H289.507L298.092 112.145H305.132L304.893 184.247H318V100.969H286.658L278.9 172.833H271.988L264.249 100.969H232.889V184.247H245.536V111.906H252.687L261.032 184.247Z" fill="#00FFA8"/>
<path d="M179.855 97.9961C171.038 97.9961 162.42 100.606 155.089 105.496C147.758 110.386 142.045 117.336 138.671 125.468C135.297 133.6 134.414 142.547 136.134 151.18C137.854 159.812 142.1 167.742 148.334 173.966C154.568 180.189 162.511 184.428 171.158 186.145C179.806 187.862 188.769 186.981 196.914 183.613C205.06 180.244 212.022 174.54 216.92 167.222C221.818 159.904 224.433 151.3 224.433 142.498C224.442 136.651 223.296 130.86 221.059 125.456C218.822 120.053 215.539 115.143 211.398 111.009C207.256 106.875 202.338 103.597 196.926 101.364C191.513 99.1309 185.712 97.9865 179.855 97.9961ZM202.502 164.942C197.273 170.204 190.375 173.49 182.988 174.24C175.601 174.99 168.183 173.157 161.999 169.054C155.815 164.951 151.25 158.832 149.082 151.742C146.914 144.653 147.279 137.032 150.114 130.181C152.949 123.33 158.078 117.674 164.625 114.178C171.172 110.682 178.732 109.563 186.014 111.013C193.296 112.462 199.848 116.39 204.551 122.126C209.255 127.861 211.818 135.049 211.804 142.461C211.84 146.639 211.036 150.782 209.438 154.644C207.84 158.505 205.482 162.007 202.502 164.942Z" fill="#00FFA8"/>
<path d="M109.192 159.62C113.059 158.111 116.584 155.846 119.56 152.958C122.415 150.122 124.675 146.746 126.209 143.028C127.743 139.31 128.52 135.325 128.494 131.304C128.518 127.319 127.739 123.37 126.205 119.691C124.67 116.012 122.41 112.678 119.56 109.888C113.792 104.242 106.057 101.046 97.9791 100.969H74.9825V184.247H87.501V161.767H94.854L112.961 184.247H129.174L109.192 159.62ZM87.501 149.27V113.448H97.9791C102.737 113.448 107.301 115.335 110.666 118.694C114.03 122.053 115.92 126.609 115.92 131.359C115.92 136.109 114.03 140.665 110.666 144.024C107.301 147.383 102.737 149.27 97.9791 149.27H87.501Z" fill="#00FFA8"/>
<path d="M305.242 2.97303L305.371 75.2038H296.309L288.073 2.97303H254.838V86.2697H267.944V14.1673H276.878L284.746 86.2697H318V2.97303H305.242Z" fill="#00FFA8"/>
<path d="M44.5778 0.000146149C35.7611 0.000146149 27.1424 2.61012 19.8117 7.50006C12.4809 12.39 6.76729 19.3402 3.39331 27.4719C0.0193283 35.6036 -0.863477 44.5515 0.856564 53.184C2.5766 61.8166 6.82222 69.746 13.0565 75.9697C19.2908 82.1934 27.2338 86.4319 35.881 88.149C44.5283 89.8661 53.4914 88.9848 61.6369 85.6166C69.7824 82.2484 76.7445 76.5444 81.6427 69.2261C86.541 61.9078 89.1555 53.3037 89.1555 44.5021C89.1627 38.656 88.0146 32.8659 85.777 27.4634C83.5393 22.0609 80.256 17.1522 76.1151 13.0183C71.9743 8.88451 67.0572 5.60678 61.6455 3.37292C56.2338 1.13905 50.4338 -0.00709961 44.5778 0.000146149ZM67.225 66.9825C61.9952 72.2443 55.0981 75.5307 47.7111 76.2807C40.3241 77.0306 32.9053 75.1976 26.7215 71.0945C20.5377 66.9914 15.9723 60.8727 13.8048 53.7832C11.6372 46.6936 12.0019 39.0726 14.8366 32.2216C17.6713 25.3706 22.8003 19.7143 29.3477 16.2184C35.8952 12.7225 43.4551 11.6038 50.7369 13.0534C58.0186 14.503 64.5705 18.4309 69.2741 24.1665C73.9776 29.902 76.541 37.0896 76.5267 44.5021C76.5632 48.6801 75.7586 52.8228 74.1608 56.6845C72.563 60.5462 70.2044 64.0481 67.225 66.9825Z" fill="#00FFA8"/>
<path d="M201.73 6.07451e-05C195.874 -0.00960739 190.072 1.1349 184.66 3.3679C179.247 5.60091 174.329 8.87856 170.187 13.0129C166.046 17.1472 162.763 22.0568 160.526 27.4604C158.289 32.864 157.143 38.6552 157.153 44.502C157.153 45.9151 157.153 47.2914 157.355 48.6678H246.069C246.179 47.3648 246.308 45.9334 246.308 44.502C246.315 38.6559 245.167 32.8658 242.929 27.4633C240.692 22.0608 237.409 17.1521 233.268 13.0183C229.127 8.88442 224.21 5.6067 218.798 3.37283C213.386 1.13897 207.586 -0.00718502 201.73 6.07451e-05ZM170.811 36.4825C172.27 30.9972 175.148 25.9913 179.157 21.9666C182.125 18.9882 185.654 16.6245 189.541 15.0118C193.427 13.399 197.595 12.5688 201.804 12.5688C206.013 12.5688 210.18 13.399 214.067 15.0118C217.953 16.6245 221.482 18.9882 224.451 21.9666C228.447 25.9976 231.318 31.0017 232.778 36.4825H170.811Z" fill="#00FFA8"/>
<path d="M242.668 62.1744L229.212 61.11C227.829 63.2909 226.228 65.3261 224.433 67.1843C221.464 70.16 217.936 72.5212 214.052 74.1323C210.167 75.7435 206.001 76.5728 201.795 76.5728C197.588 76.5728 193.423 75.7435 189.538 74.1323C185.653 72.5212 182.125 70.16 179.157 67.1843C174.137 62.2342 170.943 55.734 170.094 48.7412V75.8828C175.222 81.0621 181.547 84.9041 188.512 87.0709C195.476 89.2376 202.867 89.6628 210.035 88.3089C217.203 86.955 223.928 83.8635 229.618 79.3064C235.308 74.7493 239.79 68.8661 242.668 62.1744Z" fill="#00FFA8"/>
<path d="M151.141 33.4363C151.144 29.4351 150.356 25.4727 148.824 21.7756C147.291 18.0786 145.043 14.7194 142.209 11.8902C139.375 9.06092 136.01 6.81705 132.307 5.28699C128.604 3.75692 124.634 2.97061 120.626 2.97302H97.6298V51.1636H110.13V15.3418H120.626C125.413 15.4082 129.984 17.336 133.369 20.715C136.754 24.0941 138.685 28.658 138.752 33.4363C138.698 38.1851 136.76 42.7187 133.362 46.0423C129.964 49.3658 125.383 51.2077 120.626 51.1636H110.13V86.0311H122.998V63.5507C130.266 63.1397 137.118 60.0305 142.208 54.8339C147.905 49.1554 151.117 41.4551 151.141 33.4179" fill="#00FFA8"/>
<path d="M55.4235 109.888C52.6067 107.041 49.2479 104.785 45.5448 103.254C41.8416 101.722 37.869 100.945 33.8607 100.969H10.8458V149.141H23.4194V113.338H33.9159C36.323 113.341 38.7049 113.828 40.9196 114.769C43.0694 115.695 45.0223 117.021 46.6734 118.678C48.36 120.346 49.7007 122.329 50.6186 124.514C51.5365 126.7 52.0136 129.044 52.0227 131.414C52.0245 133.761 51.5516 136.084 50.6324 138.244C49.7132 140.404 48.3667 142.357 46.6734 143.985C43.261 147.304 38.6806 149.156 33.9159 149.141H23.4194V184.009H36.2872V161.528C43.5454 161.128 50.3911 158.032 55.4786 152.848C61.1891 147.169 64.4089 139.46 64.4309 131.414C64.4463 127.407 63.6572 123.438 62.1101 119.741C60.563 116.043 58.2894 112.693 55.4235 109.888Z" fill="#00FFA8"/>
</svg>
