<svg width="170" height="58" viewBox="0 0 170 58" fill="none" xmlns="http://www.w3.org/2000/svg">
<path d="M64.0921 10.0731C64.8776 10.0545 65.6589 10.1937 66.3897 10.4825C67.1205 10.7713 67.786 11.2038 68.3467 11.7545C68.8963 12.2702 69.3343 12.8931 69.6338 13.5849C69.9333 14.2766 70.0878 15.0224 70.0878 15.7762C70.0878 16.53 69.9333 17.2758 69.6338 17.9675C69.3343 18.6592 68.8963 19.2822 68.3467 19.7979C67.7845 20.3464 67.1187 20.7776 66.3883 21.0663C65.6578 21.3549 64.8773 21.4953 64.0921 21.4792C63.0351 21.485 61.9938 21.2245 61.0639 20.7219C60.7464 20.5315 60.4429 20.3189 60.1554 20.0857C59.955 19.9237 59.7722 19.7409 59.6103 19.5404L59.4437 19.3132L61.1244 17.4651L61.2607 17.6166C61.3791 17.7363 61.5055 17.8476 61.6392 17.9499C61.8223 18.1095 62.02 18.2515 62.2297 18.374C62.4845 18.5244 62.76 18.6367 63.0473 18.7072C63.3752 18.8115 63.7177 18.8627 64.0618 18.8587C64.6991 18.8807 65.3262 18.6946 65.8484 18.3285C66.3106 17.9893 66.676 17.535 66.9083 17.0107H62.6688V14.5417H66.9083C66.6767 14.0213 66.3173 13.568 65.8636 13.2238C65.3343 12.8605 64.7034 12.6749 64.0618 12.6937C63.7332 12.6971 63.4068 12.7481 63.0928 12.8451C62.8146 12.9217 62.5492 13.0391 62.3054 13.1935C62.1136 13.3102 61.9313 13.4418 61.7603 13.5874C61.6303 13.6829 61.5133 13.7949 61.4121 13.9206L61.291 14.0872L59.5195 12.2392C59.5957 12.1533 59.6821 12.077 59.7769 12.012C59.9411 11.8228 60.1237 11.6503 60.3219 11.497C60.5966 11.2498 60.896 11.0316 61.2153 10.8456C61.619 10.6239 62.0454 10.4462 62.4871 10.3155C63.029 10.1627 63.5896 10.0862 64.1526 10.0883" fill="white"/>
<path d="M76.0232 17.0864L74.8725 18.3891V21.1611H71.9351V10.3761H74.8725V14.5416L78.4003 10.3761H81.7919L77.9461 14.8446L82.1099 21.1611H78.7183L76.0232 17.0864Z" fill="white"/>
<path d="M92.209 11.7545C92.7586 12.2702 93.1966 12.8931 93.4961 13.5848C93.7956 14.2766 93.9501 15.0224 93.9501 15.7762C93.9501 16.53 93.7956 17.2758 93.4961 17.9675C93.1966 18.6592 92.7586 19.2822 92.209 19.7978C91.6444 20.3476 90.9762 20.7794 90.2431 21.068C89.51 21.3567 88.7268 21.4965 87.9392 21.4792C87.1561 21.4967 86.3774 21.3569 85.6493 21.0681C84.9211 20.7793 84.2582 20.3474 83.6997 19.7978C83.1461 19.2845 82.7045 18.6624 82.4024 17.9703C82.1004 17.2783 81.9445 16.5313 81.9445 15.7762C81.9445 15.021 82.1004 14.2741 82.4024 13.582C82.7045 12.89 83.1461 12.2678 83.6997 11.7545C84.2582 11.205 84.9211 10.7731 85.6493 10.4843C86.3774 10.1955 87.1561 10.0557 87.9392 10.0731C88.7268 10.0559 89.51 10.1956 90.2431 10.4843C90.9762 10.773 91.6444 11.2048 92.209 11.7545ZM85.8043 13.5722C85.2488 14.1716 84.9402 14.9588 84.9402 15.7762C84.9402 16.5936 85.2488 17.3808 85.8043 17.9801C86.0825 18.2673 86.4172 18.4936 86.7873 18.6448C87.1574 18.7961 87.5547 18.8689 87.9544 18.8587C88.3517 18.8686 88.7467 18.7956 89.1143 18.6443C89.4818 18.4931 89.8139 18.2669 90.0892 17.9801C90.6447 17.3808 90.9534 16.5936 90.9534 15.7762C90.9534 14.9588 90.6447 14.1716 90.0892 13.5722C89.8122 13.2877 89.4799 13.0629 89.1127 12.9118C88.7455 12.7607 88.3513 12.6865 87.9544 12.6936C87.5558 12.6913 87.1608 12.7678 86.7918 12.9185C86.4229 13.0693 86.0873 13.2914 85.8043 13.5722Z" fill="white"/>
<path d="M105.563 10.3761V21.1611H102.641V17.0107H98.7196V21.1611H95.7974V10.3761H98.7196V14.3902H102.641V10.3761H105.563Z" fill="white"/>
<path d="M117.676 11.7545C118.226 12.2702 118.664 12.8931 118.963 13.5848C119.263 14.2766 119.417 15.0224 119.417 15.7762C119.417 16.53 119.263 17.2758 118.963 17.9675C118.664 18.6592 118.226 19.2822 117.676 19.7979C116.523 20.8788 115.002 21.4802 113.422 21.4802C111.841 21.4802 110.32 20.8788 109.167 19.7979C108.617 19.2822 108.179 18.6592 107.88 17.9675C107.58 17.2758 107.426 16.53 107.426 15.7762C107.426 15.0224 107.58 14.2766 107.88 13.5848C108.179 12.8931 108.617 12.2702 109.167 11.7545C110.32 10.6736 111.841 10.0721 113.422 10.0721C115.002 10.0721 116.523 10.6736 117.676 11.7545ZM111.256 13.5268C110.701 14.1261 110.392 14.9134 110.392 15.7307C110.392 16.5481 110.701 17.3353 111.256 17.9347C111.538 18.2164 111.872 18.4398 112.239 18.5923C112.607 18.7447 113.001 18.8232 113.399 18.8232C113.797 18.8232 114.191 18.7447 114.559 18.5923C114.926 18.4398 115.26 18.2164 115.541 17.9347C116.087 17.3305 116.389 16.5451 116.389 15.7307C116.389 14.9163 116.087 14.131 115.541 13.5268C115.26 13.2451 114.926 13.0216 114.559 12.8692C114.191 12.7167 113.797 12.6382 113.399 12.6382C113.001 12.6382 112.607 12.7167 112.239 12.8692C111.872 13.0216 111.538 13.2451 111.256 13.5268Z" fill="white"/>
<path d="M127.2 18.5406L124.202 14.7689V21.1611H121.28V10.3761H123.884L127.2 14.6174L130.516 10.3761H133.12V21.1611H130.198V14.7689L127.2 18.5406Z" fill="white"/>
<path d="M135.588 10.3761H138.51V16.3896L143.128 10.3761H145.672V21.1611H142.75V15.1627L138.117 21.1611H135.588V10.3761Z" fill="white"/>
<path d="M152.213 17.0864L151.062 18.3891V21.1611H148.125V10.3761H151.062V14.5416L154.59 10.3761H157.982L154.136 14.8446L158.3 21.1611H154.908L152.213 17.0864Z" fill="white"/>
<path d="M165.598 18.8587H162.055L161.298 21.1611H158.194L162.282 10.3761H165.507L169.595 21.1611H166.37L165.598 18.8587ZM164.825 16.5563L163.841 13.3904L162.827 16.5563H164.825Z" fill="white"/>
<path d="M65.3942 36.3996L62.3963 32.6278V39.0201H59.474V28.235H62.0934L65.3942 32.4764L68.7101 28.235H71.3295V39.0201H68.3921V32.6278L65.3942 36.3996Z" fill="white"/>
<path d="M83.4272 29.6135C83.9763 30.1278 84.4142 30.7495 84.7135 31.4399C85.0128 32.1304 85.1672 32.875 85.1672 33.6276C85.1672 34.3802 85.0128 35.1247 84.7135 35.8152C84.4142 36.5057 83.9763 37.1273 83.4272 37.6417C82.2739 38.7226 80.7528 39.3241 79.1725 39.3241C77.5922 39.3241 76.0712 38.7226 74.9179 37.6417C74.3647 37.1297 73.9233 36.5088 73.6214 35.8181C73.3196 35.1273 73.1637 34.3815 73.1637 33.6276C73.1637 32.8737 73.3196 32.1279 73.6214 31.4371C73.9233 30.7463 74.3647 30.1254 74.9179 29.6135C76.0712 28.5326 77.5922 27.9311 79.1725 27.9311C80.7528 27.9311 82.2739 28.5326 83.4272 29.6135ZM77.0225 31.4312C76.7391 31.7209 76.5167 32.0646 76.3684 32.4418C76.2202 32.8191 76.1491 33.2223 76.1595 33.6276C76.1471 34.0354 76.2171 34.4414 76.3654 34.8215C76.5137 35.2015 76.7372 35.5476 77.0225 35.8391C77.3055 36.1199 77.641 36.342 78.01 36.4928C78.3789 36.6436 78.774 36.72 79.1725 36.7177C79.5695 36.7248 79.9637 36.6506 80.3309 36.4995C80.6981 36.3484 81.0304 36.1236 81.3074 35.8391C81.5927 35.5476 81.8162 35.2015 81.9645 34.8215C82.1128 34.4414 82.1829 34.0354 82.1705 33.6276C82.1808 33.2223 82.1098 32.8191 81.9615 32.4418C81.8133 32.0646 81.5909 31.7209 81.3074 31.4312C81.0321 31.1445 80.7 30.9182 80.3325 30.767C79.9649 30.6157 79.5699 30.5427 79.1725 30.5526C78.773 30.5434 78.3759 30.6166 78.006 30.7678C77.6361 30.9189 77.3013 31.1448 77.0225 31.4312Z" fill="white"/>
<path d="M90.2104 31.4312C89.9199 31.7164 89.6918 32.059 89.5406 32.4371C89.3894 32.8152 89.3185 33.2206 89.3322 33.6276C89.3322 34.4311 89.6512 35.2016 90.2191 35.7698C90.787 36.3379 91.5573 36.6571 92.3604 36.6571C92.8844 36.6525 93.4011 36.5336 93.8745 36.3087C94.2668 36.1421 94.6258 35.9061 94.9344 35.6119L95.2523 35.2635L96.9481 37.1115L96.7664 37.3539C96.7664 37.4448 96.509 37.6114 96.2365 37.8689C95.9512 38.1165 95.6418 38.3347 95.3129 38.5202C94.903 38.7477 94.4653 38.9208 94.0108 39.0353C93.4637 39.1881 92.8981 39.2646 92.3301 39.2625C91.5449 39.2786 90.7644 39.1382 90.0339 38.8495C89.3035 38.5609 88.6377 38.1297 88.0755 37.5811C87.5263 37.0668 87.0885 36.4451 86.7892 35.7546C86.4899 35.0642 86.3355 34.3196 86.3355 33.567C86.3355 32.8144 86.4899 32.0698 86.7892 31.3794C87.0885 30.6889 87.5263 30.0672 88.0755 29.5529C88.8456 28.8124 89.7941 28.2837 90.8288 28.0183C91.8635 27.7528 92.9492 27.7597 93.9805 28.0381C94.4292 28.1624 94.8614 28.3404 95.2675 28.5683C95.5778 28.7622 95.8761 28.9746 96.1608 29.2045C96.3576 29.3705 96.54 29.5529 96.7059 29.7498L96.8724 29.9619L95.1009 31.8099L94.9798 31.6584C94.8704 31.5406 94.7541 31.4293 94.6316 31.3252C94.4549 31.1755 94.2676 31.0388 94.0713 30.9162C93.8334 30.7644 93.5727 30.6519 93.2991 30.5829C92.9865 30.4801 92.6592 30.4289 92.3301 30.4315C91.9233 30.4177 91.5181 30.4887 91.1401 30.64C90.7622 30.7912 90.4198 31.0194 90.1347 31.31" fill="white"/>
<path d="M102.641 34.9303L101.49 36.2481V39.0201H98.5682V28.235H101.49V32.4006L105.033 28.235H108.425L104.564 32.7036L108.728 39.0201H105.336L102.641 34.9303Z" fill="white"/>
<path d="M114.951 39.0201H109.742V28.235H114.587C115.553 28.192 116.502 28.4925 117.267 29.0833C117.577 29.3177 117.829 29.6196 118.005 29.966C118.181 30.3124 118.276 30.6943 118.282 31.0828C118.286 31.3726 118.235 31.6605 118.13 31.931C118.06 32.1667 117.947 32.3874 117.797 32.5824C117.669 32.7262 117.532 32.8627 117.389 32.9914C117.282 33.0895 117.165 33.1758 117.04 33.2489H116.904L117.101 33.3246L117.57 33.5973C117.781 33.7284 117.975 33.8862 118.146 34.0668C118.351 34.2735 118.511 34.5212 118.615 34.7939C118.756 35.1082 118.829 35.4491 118.827 35.7937C118.818 36.2191 118.715 36.6373 118.523 37.0174C118.332 37.3975 118.058 37.7298 117.722 37.9901C116.927 38.6451 115.919 38.9848 114.89 38.9444M114.285 30.4769H112.771V32.3249H114.285C114.551 32.3349 114.811 32.2428 115.011 32.0674C115.102 31.9824 115.173 31.8789 115.22 31.7639C115.267 31.6489 115.289 31.525 115.284 31.4009C115.29 31.2766 115.269 31.1524 115.222 31.0373C115.175 30.9221 115.103 30.8187 115.011 30.7344C114.811 30.559 114.551 30.4669 114.285 30.4769ZM112.771 36.7177H114.769C114.922 36.7245 115.075 36.6998 115.218 36.645C115.362 36.5903 115.492 36.5068 115.602 36.3996C115.705 36.3019 115.786 36.1845 115.842 36.0543C115.898 35.9241 115.927 35.7839 115.927 35.6422C115.927 35.5005 115.898 35.3603 115.842 35.2301C115.786 35.0999 115.705 34.9825 115.602 34.8848C115.492 34.7776 115.362 34.694 115.218 34.6393C115.075 34.5846 114.922 34.5599 114.769 34.5667H112.771V36.7328V36.7177Z" fill="white"/>
<path d="M125.428 39.0201H120.735V28.2351H123.657V31.4766H125.428C125.954 31.4536 126.479 31.5355 126.973 31.7175C127.467 31.8996 127.92 32.1781 128.305 32.537C128.673 32.8839 128.963 33.305 129.156 33.7724C129.349 34.2398 129.441 34.7428 129.426 35.2484C129.442 35.7517 129.35 36.2528 129.157 36.7179C128.964 37.1829 128.673 37.6012 128.305 37.9446C127.923 38.3083 127.471 38.591 126.976 38.7758C126.482 38.9606 125.956 39.0437 125.428 39.0201ZM123.657 36.3996H125.277C125.437 36.4039 125.596 36.3752 125.745 36.3153C125.893 36.2553 126.028 36.1654 126.14 36.0512C126.253 35.9503 126.344 35.8266 126.406 35.6883C126.468 35.5499 126.5 35.4 126.5 35.2484C126.5 35.0967 126.468 34.9468 126.406 34.8085C126.344 34.6701 126.253 34.5464 126.14 34.4455C126.028 34.3313 125.893 34.2414 125.745 34.1815C125.596 34.1215 125.437 34.0928 125.277 34.0972H123.657V36.3996ZM133.423 39.0201H130.501V28.2351H133.423V39.0201Z" fill="white"/>
<path d="M42.6523 44.5035C42.5932 45.938 41.9694 47.2909 40.9171 48.2671C39.8648 49.2433 38.4693 49.7635 37.035 49.7143H32.4927C29.3254 49.7102 26.2258 50.6315 23.5746 52.3651L23.4232 52.4712L23.2869 52.3651C20.6376 50.6274 17.5368 49.7057 14.3688 49.7143H9.82653C8.39227 49.7635 6.99678 49.2433 5.94444 48.2671C4.8921 47.2909 4.26833 45.938 4.20921 44.5035V4.25646H34.0371V0H0V44.5035C0.0176778 45.7712 0.286081 47.0229 0.789721 48.1862C1.29336 49.3496 2.02226 50.4017 2.93439 51.2819C3.84652 52.162 4.92383 52.8527 6.10415 53.3142C7.28447 53.7757 8.54444 53.9989 9.81139 53.9707H14.3537C16.0659 53.9663 17.7598 54.3228 19.3251 55.0171C20.8904 55.7113 22.2919 56.7277 23.4383 58C24.5866 56.7299 25.9884 55.7151 27.5533 55.021C29.1182 54.327 30.8112 53.9692 32.523 53.9707H37.0653C39.6101 54.0031 42.064 53.0248 43.8889 51.2501C45.7139 49.4755 46.7611 47.0493 46.801 44.5035V13.1329H42.6978V44.5035H42.6523ZM25.437 27.3716H21.3337V46.6848H25.437V27.3716ZM14.8382 22.9334H10.7199V42.3071H14.8382V22.9334ZM36.1568 22.9334H32.0536V42.3071H36.1568V22.9334ZM36.1568 0V4.25646H39.7755L23.4383 17.5106L12.7639 8.87645L6.22297 14.163V19.5858L12.7639 14.2993L23.4383 22.9334L42.6978 7.31625V11.0274H46.8161V0H36.1568Z" fill="white"/>
</svg>
