<svg width="230" height="30" viewBox="0 0 230 30" fill="none" xmlns="http://www.w3.org/2000/svg">
<path d="M210.621 28.4461H220.228L223.124 4.66639H225.499L225.418 28.4461H229.84V0.980506H219.266L216.649 24.6815H214.317L211.707 0.980506H201.127V28.4461H205.393V4.58771H207.806L210.621 28.4461Z" fill="#00FFA8"/>
<path d="M183.236 2.0036e-05C180.261 2.0036e-05 177.354 0.860803 174.88 2.47353C172.407 4.08625 170.48 6.37848 169.342 9.06035C168.203 11.7422 167.906 14.6932 168.486 17.5403C169.066 20.3873 170.498 23.0026 172.602 25.0552C174.705 27.1078 177.384 28.5056 180.302 29.0719C183.219 29.6382 186.243 29.3476 188.991 28.2367C191.738 27.1259 194.087 25.2447 195.74 22.831C197.392 20.4174 198.274 17.5798 198.274 14.677C198.277 12.7487 197.891 10.8387 197.136 9.05658C196.381 7.27445 195.274 5.65519 193.877 4.29167C192.48 2.92816 190.82 1.84717 188.994 1.11071C187.168 0.374257 185.211 -0.00316856 183.236 2.0036e-05ZM190.876 22.079C189.111 23.8144 186.785 24.8983 184.293 25.1456C181.8 25.3929 179.298 24.7884 177.212 23.4352C175.125 22.082 173.585 20.064 172.854 17.7258C172.123 15.3876 172.246 12.8742 173.202 10.6147C174.158 8.35519 175.889 6.48972 178.098 5.33676C180.306 4.1838 182.857 3.81486 185.313 4.29293C187.77 4.771 189.98 6.06645 191.567 7.95808C193.154 9.8497 194.019 12.2202 194.014 14.6649C194.026 16.0428 193.755 17.4091 193.216 18.6827C192.677 19.9563 191.881 21.1112 190.876 22.079Z" fill="#00FFA8"/>
<path d="M159.397 20.3238C160.701 19.8263 161.89 19.0793 162.895 18.1268C163.858 17.1913 164.62 16.078 165.138 14.8518C165.655 13.6257 165.917 12.3111 165.908 10.985C165.916 9.67074 165.654 8.36828 165.136 7.15496C164.618 5.94164 163.856 4.8422 162.895 3.92195C160.948 2.05992 158.339 1.00574 155.614 0.980515H147.856V28.4461H152.079V21.032H154.56L160.668 28.4461H166.138L159.397 20.3238ZM152.079 16.9103V5.09611H155.614C157.219 5.09611 158.759 5.71847 159.894 6.82626C161.029 7.93406 161.667 9.43656 161.667 11.0032C161.667 12.5699 161.029 14.0724 159.894 15.1802C158.759 16.288 157.219 16.9103 155.614 16.9103H152.079Z" fill="#00FFA8"/>
<path d="M103.816 1.60026L103.859 25.4223H100.802L98.0237 1.60026H86.8114V29.0719H91.2331V5.2922H94.247L96.9013 29.0719H108.12V1.60026H103.816Z" fill="#00FFA8"/>
<path d="M15.8785 0.619788C12.9042 0.619788 9.99657 1.48057 7.52348 3.0933C5.05038 4.70602 3.12285 6.99825 1.98461 9.68011C0.846364 12.362 0.548542 15.313 1.12881 18.1601C1.70908 21.0071 3.14138 23.6223 5.24457 25.6749C7.34777 27.7275 10.0274 29.1254 12.9446 29.6917C15.8618 30.258 18.8856 29.9674 21.6336 28.8565C24.3815 27.7457 26.7302 25.8645 28.3827 23.4508C30.0352 21.0372 30.9172 18.1996 30.9172 15.2968C30.9196 13.3687 30.5323 11.4591 29.7774 9.6773C29.0225 7.89553 27.9149 6.27661 26.5179 4.91325C25.121 3.54989 23.4621 2.46888 21.6365 1.73214C19.8108 0.995405 17.8541 0.617398 15.8785 0.619788ZM23.5188 22.7109C21.7544 24.4463 19.4276 25.5301 16.9356 25.7775C14.4435 26.0248 11.9407 25.4203 9.85458 24.0671C7.76842 22.7138 6.22825 20.6959 5.497 18.3577C4.76575 16.0195 4.88878 13.5061 5.8451 11.2466C6.80141 8.98708 8.5317 7.1216 10.7405 5.96865C12.9494 4.81569 15.4998 4.44674 17.9564 4.92481C20.4129 5.40288 22.6233 6.69833 24.21 8.58996C25.7968 10.4816 26.6616 12.8521 26.6568 15.2968C26.6691 16.6747 26.3976 18.041 25.8586 19.3146C25.3196 20.5882 24.5239 21.7431 23.5188 22.7109Z" fill="#00FFA8"/>
<path d="M68.8952 0.61976C66.9194 0.616571 64.9624 0.994034 63.1363 1.73049C61.3103 2.46695 59.6511 3.54793 58.254 4.91145C56.8569 6.27497 55.7493 7.89419 54.9947 9.67632C54.2401 11.4584 53.8533 13.3684 53.8566 15.2967C53.8566 15.7628 53.8566 16.2167 53.9248 16.6706H83.8533C83.8905 16.2409 83.9339 15.7688 83.9339 15.2967C83.9364 13.3686 83.549 11.459 82.7941 9.67728C82.0392 7.89551 80.9316 6.27658 79.5346 4.91322C78.1377 3.54987 76.4789 2.46886 74.6532 1.73212C72.8275 0.995377 70.8708 0.61737 68.8952 0.61976ZM58.4643 12.6518C58.9566 10.8428 59.9275 9.19179 61.2798 7.86445C62.2813 6.88213 63.4719 6.10259 64.783 5.57069C66.0942 5.03879 67.5001 4.76498 68.9201 4.76498C70.34 4.76498 71.7459 5.03879 73.0571 5.57069C74.3682 6.10259 75.5588 6.88213 76.5603 7.86445C77.9085 9.19387 78.877 10.8443 79.3696 12.6518H58.4643Z" fill="#00FFA8"/>
<path d="M82.706 21.1252L78.1665 20.7741C77.6999 21.4934 77.1596 22.1646 76.5541 22.7774C75.5527 23.7589 74.3625 24.5376 73.0519 25.0689C71.7413 25.6003 70.3361 25.8738 68.9169 25.8738C67.4978 25.8738 66.0926 25.6003 64.782 25.0689C63.4714 24.5376 62.2812 23.7589 61.2798 22.7774C59.5863 21.1449 58.5087 19.0011 58.2224 16.6948V25.6463C59.9525 27.3544 62.0862 28.6215 64.4358 29.3361C66.7854 30.0508 69.2789 30.191 71.697 29.7445C74.1151 29.2979 76.3838 28.2783 78.3035 26.7754C80.2231 25.2724 81.7349 23.3321 82.706 21.1252Z" fill="#00FFA8"/>
<path d="M51.8287 11.6472C51.8295 10.3276 51.5638 9.02075 51.0467 7.80145C50.5297 6.58214 49.7714 5.47428 48.8153 4.54118C47.8592 3.60808 46.724 2.86804 45.4747 2.36341C44.2253 1.85879 42.8863 1.59946 41.5342 1.60026H33.7761V17.4938H37.9931V5.67954H41.5342C43.1489 5.70145 44.6912 6.33722 45.8331 7.45166C46.975 8.56609 47.6264 10.0713 47.6489 11.6472C47.6309 13.2134 46.9769 14.7086 45.8305 15.8047C44.6841 16.9008 43.139 17.5083 41.5342 17.4938H37.9931V28.9932H42.3342V21.5791C44.7862 21.4435 47.0978 20.4181 48.8147 18.7042C50.7369 16.8315 51.8206 14.2918 51.8287 11.6411" fill="#00FFA8"/>
<path d="M141.257 3.92194C140.307 2.98302 139.174 2.2391 137.925 1.73395C136.676 1.2288 135.335 0.972617 133.983 0.980508H126.219V16.8679H130.461V5.05979H134.002C134.814 5.06087 135.617 5.2214 136.364 5.53185C137.09 5.83703 137.749 6.27458 138.306 6.82101C138.875 7.37095 139.327 8.02505 139.637 8.7458C139.946 9.46655 140.107 10.2398 140.11 11.0213C140.111 11.7954 139.951 12.5616 139.641 13.2739C139.331 13.9863 138.877 14.6303 138.306 15.1672C137.154 16.2621 135.609 16.8728 134.002 16.8679H130.461V28.3674H134.802V20.9533C137.25 20.8212 139.56 19.8 141.276 18.0905C143.203 16.2176 144.289 13.6751 144.296 11.0213C144.301 9.69987 144.035 8.3908 143.513 7.17143C142.991 5.95206 142.224 4.84714 141.257 3.92194Z" fill="#00FFA8"/>
</svg>
