<svg width="206" height="58" viewBox="0 0 206 58" fill="none" xmlns="http://www.w3.org/2000/svg">
<path d="M36.2648 0V4.25646H39.8524L23.6558 17.4954L13.0582 8.87647L6.57358 14.163V19.5858L13.0582 14.2993L23.6558 22.9183L42.7345 7.31627V11.0274H46.8174V0H36.2648Z" fill="white"/>
<path d="M42.7045 44.5035C42.6545 45.8164 42.1312 47.0658 41.2329 48.0169C40.3346 48.968 39.1231 49.5554 37.826 49.6688L32.8574 46.8514L31.5665 49.79C30.9566 49.8325 30.35 49.9135 29.7502 50.0324V49.4113L30.5307 49.8658V42.0193L25.382 43.322V51.3957L24.1662 52.0773V42.0193L25.6673 41.6103V31.416L18.267 33.8851V42.807L22.6201 45.17V51.7592C22.2298 51.5471 21.8395 51.3351 21.4492 51.1533V46.0789L11.8573 40.9741L4.56215 37.0812V4.25647H34.2384V1.10944e-05H0.449219V44.5035C0.466834 45.7647 0.730477 47.0101 1.22509 48.1684C1.7197 49.3268 2.43556 50.3755 3.33185 51.2546C4.22814 52.1338 5.28727 52.8261 6.44875 53.2922C7.61023 53.7582 8.85132 53.9888 10.1011 53.9707H14.6043C16.3025 53.9615 17.9834 54.3159 19.5359 55.0104C21.0884 55.705 22.4772 56.7239 23.6108 58C24.7491 56.7299 26.1389 55.7151 27.6903 55.021C29.2417 54.327 30.9202 53.9692 32.6172 53.9707H37.1205C39.6434 54.0031 42.0761 53.0248 43.8854 51.2501C45.6946 49.4755 46.7328 47.0493 46.7724 44.5035V13.1329H42.6894V44.5035H42.7045ZM4.56215 44.5035V40.5954L11.8573 44.4884V46.0789L14.2291 44.5641V49.6385H13.0432V46.8514L8.6601 49.5477C7.52131 49.2917 6.49974 48.6595 5.7574 47.7513C5.01506 46.843 4.59442 45.7107 4.56215 44.5338" fill="white"/>
<path d="M12.0075 39.6866L16.8559 42.3071L16.976 36.2178L12.0075 33.3701V39.6866Z" fill="white"/>
<path d="M11.9024 29.3105L11.4971 29.6589L11.1068 30.0073L10.3563 30.7647L9.99603 31.1585L9.39561 31.8553L12.0825 33.3701C12.5747 32.7689 13.1171 32.2114 13.7037 31.7038C14.3371 31.1857 15.021 30.734 15.7451 30.3557C17.1868 29.5758 18.7694 29.0967 20.3985 28.947C21.207 28.8639 22.0217 28.8639 22.8302 28.947C23.6453 29.0236 24.4503 29.1861 25.2319 29.4317C26.7953 29.9196 28.2488 30.7122 29.51 31.7644C30.1358 32.2925 30.7089 32.881 31.2212 33.5215C32.2512 34.8038 33.0259 36.2749 33.5029 37.8537C33.7313 38.6455 33.8871 39.4568 33.9682 40.2774C34.1186 41.9213 33.9452 43.5789 33.4578 45.1549C33.4578 45.3518 33.3377 45.5487 33.2627 45.7456L35.8896 47.2604L35.9646 47.0786L36.1448 46.5788C36.1448 46.4121 36.2648 46.2455 36.3099 46.0789C36.3549 45.9123 36.415 45.7305 36.46 45.5638L36.5951 45.0488C36.5951 44.8822 36.5951 44.7004 36.7002 44.5338C36.8052 44.3672 36.7752 44.1854 36.8052 44.0188L38.5765 43.837L38.7116 40.4894L36.9553 40.1713C36.9553 40.0047 36.9553 39.8229 36.9553 39.6563C36.9553 39.4897 36.9553 39.3079 36.8803 39.1261C36.8052 38.9444 36.8803 38.7777 36.7902 38.6111C36.7002 38.4445 36.7902 38.2627 36.6851 38.081C36.5801 37.8992 36.6101 37.7477 36.5651 37.5659L36.43 37.0509C36.43 36.8843 36.3249 36.7177 36.2648 36.5511L36.0847 36.0512L37.5858 35.006L36.0847 31.9765L34.4185 32.5824L34.1183 32.1583L33.8031 31.7493L33.1126 30.9313C32.9925 30.8101 32.8724 30.6738 32.7373 30.5526C32.6022 30.4315 32.4971 30.2951 32.362 30.1739L31.5815 29.4771L32.302 27.8564L29.495 26.0689L28.3542 27.4322L27.8738 27.2201L27.3935 27.0232L26.8981 26.8263L26.3878 26.6597L25.8774 26.5234C25.7097 26.469 25.5394 26.4235 25.367 26.3871L24.8567 26.2659L24.3463 26.175L24.1662 24.4179L20.8488 24.2967L20.5486 26.0386H20.0232L19.4978 26.1144C19.3254 26.1298 19.1547 26.1602 18.9875 26.2053L18.4621 26.3113L17.9517 26.4325L17.4413 26.584L16.946 26.7354L16.4506 26.9172L15.4149 25.4024L12.4878 26.9172L13.0882 28.5683L12.2476 29.2045" fill="white"/>
<path d="M57.415 43.5341H55.7638V37.4296H59.9968V39.005H57.415V43.5341Z" fill="white"/>
<path d="M61.8281 43.2766C61.3276 43.0033 60.908 42.6008 60.6123 42.1102C60.3238 41.6199 60.1733 41.0596 60.1769 40.4894C60.1729 39.9144 60.3233 39.3491 60.6123 38.8535C60.908 38.3629 61.3276 37.9604 61.8281 37.6871C62.3566 37.3935 62.9511 37.2423 63.5544 37.2479C64.1574 37.2443 64.7514 37.3954 65.2806 37.6871C65.7764 37.9614 66.191 38.364 66.4815 38.8535C66.7778 39.346 66.9288 39.9134 66.9168 40.4894C66.9259 41.0603 66.775 41.6221 66.4815 42.1102C66.191 42.5998 65.7764 43.0024 65.2806 43.2766C64.7514 43.5683 64.1574 43.7194 63.5544 43.7159C62.9511 43.7214 62.3566 43.5702 61.8281 43.2766ZM64.395 41.9588C64.6524 41.8122 64.8652 41.5975 65.0104 41.3377C65.1578 41.077 65.2354 40.782 65.2354 40.4819C65.2354 40.1817 65.1578 39.8867 65.0104 39.626C64.8591 39.3613 64.6397 39.1428 64.3755 38.9935C64.1113 38.8441 63.812 38.7696 63.5093 38.7778C63.2089 38.7735 62.9131 38.8521 62.6537 39.005C62.3994 39.1556 62.1875 39.3694 62.0383 39.626C61.8909 39.8867 61.8133 40.1817 61.8133 40.4819C61.8133 40.782 61.8909 41.077 62.0383 41.3377C62.1875 41.5944 62.3994 41.8082 62.6537 41.9588C62.9131 42.1116 63.2089 42.1902 63.5093 42.186C63.8049 42.1897 64.0958 42.1111 64.3499 41.9588" fill="white"/>
<path d="M67.9525 43.5341V37.4751H70.7445C71.151 37.4682 71.553 37.5618 71.9154 37.7477C72.4087 38.0333 72.7696 38.5047 72.9187 39.0585C73.0679 39.6123 72.9931 40.2032 72.7109 40.7015C72.5205 41.0274 72.2454 41.2945 71.9154 41.474C71.553 41.6599 71.151 41.7535 70.7445 41.7467H69.6637V43.5795L67.9525 43.5341ZM70.5944 40.2168C70.686 40.2204 70.7773 40.2048 70.8626 40.1709C70.9479 40.137 71.0253 40.0856 71.0898 40.0199C71.1538 39.9635 71.2045 39.8935 71.2383 39.8149C71.272 39.7363 71.2879 39.6511 71.2849 39.5654C71.2869 39.4799 71.2705 39.3951 71.2368 39.3166C71.2031 39.2381 71.153 39.168 71.0898 39.111C71.0253 39.0453 70.9479 38.9939 70.8626 38.96C70.7773 38.9261 70.686 38.9104 70.5944 38.9141H69.6037V40.2168H70.5944Z" fill="white"/>
<path d="M75.1427 43.2766C74.6454 42.9988 74.2269 42.5973 73.9268 42.1102C73.6384 41.6199 73.4878 41.0596 73.4915 40.4894C73.4874 39.9144 73.6378 39.3491 73.9268 38.8535C74.2269 38.3664 74.6454 37.9649 75.1427 37.6871C75.6711 37.3935 76.2656 37.2423 76.8689 37.2479C77.4719 37.2443 78.0659 37.3954 78.5952 37.6871C79.091 37.9614 79.5055 38.364 79.796 38.8535C80.0976 39.3443 80.2538 39.912 80.2463 40.4894C80.2509 41.0618 80.0948 41.6237 79.796 42.1102C79.5055 42.5998 79.091 43.0024 78.5952 43.2766C78.0659 43.5683 77.4719 43.7194 76.8689 43.7159C76.2656 43.7214 75.6711 43.5702 75.1427 43.2766ZM77.7245 41.9588C77.9746 41.8078 78.1815 41.5937 78.3249 41.3377C78.4723 41.077 78.5499 40.782 78.5499 40.4819C78.5499 40.1817 78.4723 39.8867 78.3249 39.626C78.1815 39.37 77.9746 39.156 77.7245 39.005C77.4634 38.8563 77.1687 38.7782 76.8689 38.7782C76.5691 38.7782 76.2744 38.8563 76.0133 39.005C75.759 39.1556 75.5471 39.3694 75.3979 39.626C75.2504 39.8867 75.1729 40.1817 75.1729 40.4819C75.1729 40.782 75.2504 41.077 75.3979 41.3377C75.5471 41.5944 75.759 41.8082 76.0133 41.9588C76.2744 42.1074 76.5691 42.1855 76.8689 42.1855C77.1687 42.1855 77.4634 42.1074 77.7245 41.9588Z" fill="white"/>
<path d="M86.2056 41.9587H86.9862V44.8519H85.335V43.5341H82.1377V44.8519H80.5015V41.9587H80.8468C81.1158 41.6993 81.3169 41.3766 81.4322 41.0196C81.6155 40.4837 81.7068 39.9202 81.7023 39.3534V37.4296H86.2056V41.9739V41.9587ZM84.5544 41.9587V38.9292H83.3235V39.2776C83.3261 39.8481 83.24 40.4155 83.0683 40.959C82.9826 41.304 82.8123 41.6218 82.573 41.883L84.5544 41.9587Z" fill="white"/>
<path d="M87.2563 43.5341L89.538 37.4751H91.3843L93.6509 43.5341H91.9097L91.5044 42.3526H89.4029L88.9826 43.5341H87.2563ZM90.4236 38.9898L89.7932 40.9893H91.0691L90.4536 38.9898H90.4236Z" fill="white"/>
<path d="M97.7038 43.5341H96.0526V37.4296H97.5387L99.4 39.7775H99.415L101.261 37.4296H102.717V43.5341H101.066V39.9593H101.036L99.385 42.0496L97.7338 39.9593H97.7038V43.5341Z" fill="white"/>
<path d="M105.404 43.2766C104.907 42.9988 104.489 42.5973 104.188 42.1102C103.9 41.6199 103.749 41.0596 103.753 40.4894C103.749 39.9144 103.899 39.3491 104.188 38.8535C104.489 38.3664 104.907 37.9649 105.404 37.6871C105.935 37.3994 106.528 37.2488 107.131 37.2488C107.733 37.2488 108.326 37.3994 108.857 37.6871C109.354 37.9649 109.773 38.3664 110.073 38.8535C110.362 39.3491 110.512 39.9144 110.508 40.4894C110.512 41.0596 110.361 41.6199 110.073 42.1102C109.773 42.5973 109.354 42.9988 108.857 43.2766C108.326 43.5643 107.733 43.7149 107.131 43.7149C106.528 43.7149 105.935 43.5643 105.404 43.2766ZM107.986 41.9587C108.236 41.8077 108.443 41.5937 108.587 41.3377C108.734 41.077 108.812 40.782 108.812 40.4818C108.812 40.1817 108.734 39.8867 108.587 39.626C108.443 39.37 108.236 39.156 107.986 39.005C107.725 38.8563 107.43 38.7782 107.131 38.7782C106.831 38.7782 106.536 38.8563 106.275 39.005C106.025 39.156 105.818 39.37 105.674 39.626C105.527 39.8867 105.45 40.1817 105.45 40.4818C105.45 40.782 105.527 41.077 105.674 41.3377C105.818 41.5937 106.025 41.8077 106.275 41.9587C106.536 42.1074 106.831 42.1855 107.131 42.1855C107.43 42.1855 107.725 42.1074 107.986 41.9587Z" fill="white"/>
<path d="M112.775 43.2766C112.279 43.0023 111.864 42.5997 111.574 42.1102C111.28 41.6221 111.129 41.0603 111.138 40.4894C111.126 39.9134 111.277 39.3459 111.574 38.8535C111.864 38.3639 112.279 37.9613 112.775 37.6871C113.286 37.415 113.852 37.2653 114.43 37.2495C115.008 37.2338 115.582 37.3524 116.107 37.5962C116.531 37.8062 116.913 38.0938 117.233 38.4445L116.152 39.4745C115.932 39.2694 115.684 39.096 115.417 38.9595C115.129 38.8309 114.816 38.7688 114.501 38.7777C114.2 38.7735 113.905 38.8521 113.645 39.005C113.389 39.1485 113.181 39.3643 113.045 39.626C112.893 39.8878 112.815 40.1863 112.82 40.4894C112.82 40.792 112.897 41.0894 113.045 41.3528C113.183 41.6089 113.391 41.8193 113.645 41.9587C113.905 42.1116 114.2 42.1902 114.501 42.1859C114.825 42.193 115.147 42.1311 115.447 42.0042C115.717 41.8659 115.965 41.6872 116.182 41.474L117.278 42.5041C116.952 42.8549 116.566 43.1425 116.137 43.3523C115.629 43.6049 115.067 43.7296 114.501 43.7158C113.898 43.7194 113.304 43.5683 112.775 43.2766Z" fill="white"/>
<path d="M119.785 43.5341H118.148V37.4296H119.785V39.7775L121.781 37.4296H123.687L121.526 39.9593L123.853 43.5341H121.946L120.445 41.2165L119.785 41.9587V43.5341Z" fill="white"/>
<path d="M124.558 43.5341V37.4751H127.275C127.666 37.4666 128.054 37.5387 128.416 37.6871C128.71 37.8116 128.965 38.0161 129.151 38.2779C129.313 38.5134 129.397 38.7943 129.392 39.0807C129.402 39.3701 129.312 39.6541 129.136 39.8835C128.991 40.1065 128.773 40.2723 128.521 40.3531C128.715 40.4188 128.898 40.516 129.061 40.6409C129.245 40.7791 129.399 40.9546 129.512 41.1559C129.631 41.3792 129.693 41.6292 129.692 41.883C129.692 42.1851 129.604 42.4805 129.437 42.7313C129.25 43.0065 128.99 43.222 128.686 43.3523C128.306 43.5129 127.897 43.5903 127.485 43.5795L124.558 43.5341ZM127.14 39.7775C127.292 39.7861 127.442 39.7375 127.56 39.6412C127.657 39.5395 127.712 39.4038 127.712 39.2625C127.712 39.1212 127.657 38.9854 127.56 38.8838C127.444 38.782 127.294 38.728 127.14 38.7323H126.194V39.7775H127.14ZM127.365 42.2314C127.451 42.2356 127.537 42.2215 127.617 42.1902C127.697 42.1589 127.77 42.111 127.83 42.0496C127.89 41.9942 127.938 41.9261 127.969 41.8502C128 41.7743 128.014 41.6924 128.011 41.6103C128.013 41.5306 127.998 41.4514 127.967 41.3781C127.936 41.3048 127.889 41.2393 127.83 41.1862C127.77 41.1248 127.697 41.0769 127.617 41.0456C127.537 41.0143 127.451 41.0003 127.365 41.0044H126.194V42.3071L127.365 42.2314Z" fill="white"/>
<path d="M130.697 43.5341V37.4751H132.289V39.2776H133.279C133.686 39.2708 134.088 39.3644 134.45 39.5503C134.78 39.7298 135.055 39.9969 135.246 40.3228C135.433 40.6554 135.531 41.0311 135.531 41.4134C135.531 41.7957 135.433 42.1715 135.246 42.5041C135.055 42.8299 134.78 43.0971 134.45 43.2766C134.088 43.4625 133.686 43.5561 133.279 43.5492L130.697 43.5341ZM133.249 42.0193C133.431 42.024 133.608 41.9591 133.745 41.8376C133.866 41.7115 133.936 41.5438 133.94 41.368C133.939 41.2829 133.921 41.1989 133.888 41.1208C133.854 41.0428 133.806 40.9723 133.745 40.9136C133.68 40.8478 133.603 40.7964 133.517 40.7625C133.432 40.7286 133.341 40.713 133.249 40.7166H132.289V42.0193H133.249ZM137.828 43.5341H136.176V37.4751H137.828V43.5341Z" fill="white"/>
<path d="M57.1898 33.0671H55.7638V26.9627H57.415V30.3103H57.445L59.9968 26.9627H61.4228V33.0671H59.7867V29.7044H59.7566L57.1898 33.0671Z" fill="white"/>
<path d="M66.4364 33.0671H64.8003V26.9627H70.2041V33.0671H68.568V28.5229H66.4364V33.0671Z" fill="white"/>
<path d="M71.5851 33.0671V27.0081H74.3171C74.7236 27.0012 75.1255 27.0949 75.4879 27.2808C75.8179 27.4603 76.093 27.7274 76.2835 28.0533C76.4703 28.3858 76.5685 28.7616 76.5685 29.1439C76.5685 29.5262 76.4703 29.902 76.2835 30.2345C76.085 30.5539 75.8118 30.8191 75.4879 31.007C75.1255 31.193 74.7236 31.2866 74.3171 31.2797H73.2363V33.1126L71.5851 33.0671ZM74.227 29.7498C74.3186 29.7535 74.41 29.7378 74.4952 29.7039C74.5805 29.67 74.6579 29.6186 74.7224 29.5529C74.784 29.4947 74.8332 29.4243 74.8667 29.3461C74.9003 29.268 74.9176 29.1837 74.9175 29.0985C74.9205 29.0128 74.9046 28.9276 74.8708 28.849C74.8371 28.7704 74.7864 28.7003 74.7224 28.644C74.6579 28.5783 74.5805 28.5269 74.4952 28.493C74.41 28.4591 74.3186 28.4435 74.227 28.4471H73.2363V29.7498H74.227Z" fill="white"/>
<path d="M78.7753 32.8096C78.2708 32.5415 77.8496 32.1379 77.5582 31.6434C77.2668 31.1488 77.1165 30.5826 77.1241 30.0073C77.1193 29.4346 77.2709 28.8715 77.5621 28.3799C77.8534 27.8883 78.2731 27.4871 78.7753 27.2201C79.303 26.9246 79.898 26.7732 80.5015 26.7809C81.1045 26.7773 81.6985 26.9285 82.2277 27.2201C82.7291 27.4868 83.1454 27.8911 83.4286 28.3865C83.7222 28.8746 83.873 29.4365 83.8639 30.0073C83.8759 30.5833 83.7249 31.1508 83.4286 31.6433C83.1381 32.1328 82.7236 32.5354 82.2277 32.8096C81.6974 33.0967 81.1033 33.2426 80.5015 33.2337C79.8993 33.2467 79.3042 33.1005 78.7753 32.8096ZM81.3571 31.4918C81.6072 31.3408 81.8141 31.1268 81.9576 30.8707C82.105 30.61 82.1825 30.315 82.1825 30.0149C82.1825 29.7147 82.105 29.4198 81.9576 29.1591C81.8141 28.903 81.6072 28.689 81.3571 28.538C81.0961 28.3892 80.8013 28.3109 80.5015 28.3108C80.2011 28.3066 79.9053 28.3851 79.6459 28.538C79.3915 28.6886 79.1796 28.9024 79.0304 29.1591C78.883 29.4198 78.8055 29.7147 78.8055 30.0149C78.8055 30.315 78.883 30.61 79.0304 30.8707C79.1796 31.1274 79.3915 31.3412 79.6459 31.4918C79.9053 31.6446 80.2011 31.7232 80.5015 31.719C80.8013 31.7188 81.0961 31.6406 81.3571 31.4918Z" fill="white"/>
<path d="M86.5508 33.0671H84.8997V26.9627H86.3857L88.247 29.3105H88.2621L90.1084 26.9627H91.5644V33.0671H89.9132V29.4923H89.8832L88.232 31.5827L86.5809 29.4923H86.5508V33.0671Z" fill="white"/>
<path d="M92.9454 33.0671V27.0081H94.5966V28.841H95.5873C95.9938 28.8341 96.3957 28.9277 96.7581 29.1136C97.0881 29.2931 97.3632 29.5603 97.5537 29.8861C97.7405 30.2187 97.8388 30.5945 97.8388 30.9768C97.8388 31.3591 97.7405 31.7348 97.5537 32.0674C97.3552 32.3867 97.082 32.652 96.7581 32.8399C96.3957 33.0258 95.9938 33.1194 95.5873 33.1125L92.9454 33.0671ZM95.4972 31.5524C95.589 31.558 95.681 31.5433 95.7665 31.5092C95.8521 31.4752 95.9293 31.4227 95.9926 31.3554C96.0566 31.2991 96.1073 31.2291 96.1411 31.1505C96.1748 31.0719 96.1908 30.9866 96.1878 30.901C96.189 30.8134 96.1723 30.7265 96.1387 30.6457C96.1052 30.5649 96.0554 30.4919 95.9926 30.4314C95.9263 30.3692 95.8483 30.321 95.7632 30.2898C95.6781 30.2586 95.5876 30.2449 95.4972 30.2497H94.5966V31.5524H95.4972ZM100.076 33.0671H98.4394V27.0081H100.076V33.0671Z" fill="white"/>
<path d="M109.412 33.0671H101.457V26.9627H103.108V31.4918H104.624V26.9627H106.26V31.4918H107.776V26.9627H109.412V33.0671Z" fill="white"/>
<path d="M111.619 26.9626H116.212V33.0217H114.561V28.4774H113.195V28.8258C113.206 29.7137 113.105 30.5993 112.895 31.4615C112.786 31.9708 112.536 32.4384 112.174 32.8096C111.852 33.0726 111.448 33.2121 111.033 33.2035C110.889 33.2181 110.743 33.2181 110.598 33.2035C110.478 33.1774 110.363 33.1367 110.253 33.0823V31.5675C110.377 31.6186 110.509 31.6493 110.643 31.6584C110.734 31.6599 110.823 31.6417 110.906 31.6051C110.989 31.5686 111.063 31.5144 111.123 31.4463C111.298 31.1991 111.411 30.9135 111.454 30.6132C111.558 30.0541 111.603 29.4854 111.589 28.9167V26.9929L111.619 26.9626Z" fill="white"/>
<path d="M122.291 33.0671H117.578V26.9627H122.216V28.4471H119.229V29.2954H121.526V30.689H119.229V31.5827H122.291V33.0671Z" fill="white"/>
<path d="M125.068 33.0671H123.417V26.9627H125.068V29.1893H127.275V26.9627H128.911V33.0671H127.275V30.7495H125.068V33.0671Z" fill="white"/>
<path d="M131.943 33.0671H130.292V26.9627H131.943V29.1893H134.15V26.9627H135.786V33.0671H134.15V30.7495H131.943V33.0671Z" fill="white"/>
<path d="M138.473 32.8096C137.977 32.5354 137.563 32.1328 137.272 31.6433C136.971 31.1524 136.814 30.5848 136.822 30.0073C136.817 29.435 136.973 28.873 137.272 28.3865C137.555 27.8912 137.972 27.4868 138.473 27.2202C139.002 26.9285 139.596 26.7773 140.199 26.7809C140.802 26.7753 141.397 26.9266 141.925 27.2202C142.428 27.4871 142.847 27.8883 143.139 28.3799C143.43 28.8715 143.581 29.4346 143.577 30.0073C143.584 30.5826 143.434 31.1488 143.143 31.6434C142.851 32.1379 142.43 32.5415 141.925 32.8096C141.396 33.0986 140.801 33.2447 140.199 33.2337C139.597 33.2426 139.003 33.0967 138.473 32.8096ZM141.055 31.4918C141.305 31.3408 141.512 31.1268 141.655 30.8707C141.815 30.6123 141.893 30.3114 141.88 30.0073C141.89 29.7083 141.812 29.4132 141.655 29.1591C141.512 28.903 141.305 28.689 141.055 28.538C140.795 28.3851 140.5 28.3066 140.199 28.3108C139.896 28.2976 139.594 28.3699 139.329 28.5198C139.064 28.6696 138.846 28.891 138.698 29.1591C138.551 29.4198 138.473 29.7147 138.473 30.0149C138.473 30.315 138.551 30.61 138.698 30.8707C138.846 31.1388 139.064 31.3602 139.329 31.51C139.594 31.6598 139.896 31.7322 140.199 31.719C140.5 31.7232 140.795 31.6447 141.055 31.4918Z" fill="white"/>
<path d="M146.038 33.0671H144.537V27.0081H146.174V30.3557L148.725 27.0081H150.226V33.0671H148.59V29.7043L146.038 33.0671ZM146.294 25.9175C146.153 25.7813 146.042 25.6162 145.97 25.4333C145.897 25.2504 145.864 25.0539 145.873 24.8571H146.954C146.949 24.9263 146.959 24.9956 146.982 25.0608C147.005 25.126 147.042 25.1856 147.089 25.2358C147.191 25.3189 147.319 25.3619 147.449 25.357C147.575 25.3583 147.697 25.3155 147.795 25.2358C147.847 25.1889 147.888 25.1302 147.914 25.0644C147.94 24.9987 147.951 24.9277 147.945 24.8571H149.011C149.02 25.0539 148.987 25.2504 148.914 25.4333C148.842 25.6162 148.731 25.7813 148.59 25.9175C148.436 26.0581 148.256 26.1667 148.06 26.2369C147.865 26.3071 147.657 26.3375 147.449 26.3265C147.026 26.3479 146.611 26.2011 146.294 25.9175Z" fill="white"/>
<path d="M155.285 33.0671H153.649V26.9627H159.053V33.0671H157.402V28.5229H155.285V33.0671Z" fill="white"/>
<path d="M161.74 32.8096C161.236 32.5407 160.815 32.1372 160.524 31.6433C160.237 31.1468 160.087 30.582 160.088 30.0073C160.085 29.4372 160.235 28.8768 160.524 28.3865C160.811 27.889 161.233 27.4844 161.74 27.2201C162.267 26.9246 162.862 26.7732 163.466 26.7809C164.069 26.7773 164.663 26.9285 165.192 27.2201C165.694 27.4868 166.11 27.8911 166.393 28.3865C166.681 28.8768 166.832 29.4372 166.828 30.0073C166.834 30.5804 166.685 31.1442 166.396 31.638C166.108 32.1318 165.692 32.5368 165.192 32.8096C164.662 33.0967 164.068 33.2426 163.466 33.2337C162.864 33.2467 162.269 33.1005 161.74 32.8096ZM164.307 31.4918C164.564 31.3452 164.777 31.1305 164.922 30.8707C165.069 30.61 165.147 30.315 165.147 30.0149C165.147 29.7147 165.069 29.4198 164.922 29.1591C164.777 28.8993 164.564 28.6845 164.307 28.538C164.048 28.3892 163.756 28.311 163.458 28.311C163.161 28.311 162.869 28.3892 162.61 28.538C162.356 28.6886 162.144 28.9024 161.995 29.1591C161.847 29.4198 161.77 29.7147 161.77 30.0149C161.77 30.315 161.847 30.61 161.995 30.8707C162.144 31.1274 162.356 31.3412 162.61 31.4918C162.869 31.6405 163.161 31.7188 163.458 31.7188C163.756 31.7188 164.048 31.6405 164.307 31.4918Z" fill="white"/>
<path d="M168.314 26.9626H172.893V33.0217H171.317V28.4774H169.936V28.8258C169.939 29.7132 169.838 30.598 169.635 31.4615C169.527 31.9708 169.277 32.4384 168.915 32.8096C168.588 33.0749 168.178 33.2144 167.759 33.2035C167.619 33.2171 167.478 33.2171 167.339 33.2035C167.219 33.1796 167.102 33.1388 166.993 33.0823V31.5675C167.117 31.6202 167.249 31.6509 167.384 31.6584C167.474 31.6571 167.563 31.6377 167.645 31.6013C167.728 31.5649 167.802 31.5122 167.864 31.4463C168.038 31.1991 168.151 30.9135 168.194 30.6132C168.283 30.0521 168.328 29.4849 168.329 28.9167V26.9929L168.314 26.9626Z" fill="white"/>
<path d="M175.73 33.0671H174.304V26.9627H175.955V30.3103H175.985L178.537 26.9627H179.963V33.0671H178.327V29.7044H178.297L175.73 33.0671Z" fill="white"/>
<path d="M184.166 33.0671H182.53V28.5229H180.833V26.9627H185.847V28.5229H184.166V33.0671Z" fill="white"/>
<path d="M188.144 33.0671H186.718V26.9627H188.354V30.3103H188.399L190.951 26.9627H192.377V33.0671H190.74V29.7044H190.695L188.144 33.0671Z" fill="white"/>
<path d="M195.409 33.0671H193.758V26.9627H195.409V29.3105L197.39 26.9627H199.297L197.135 29.4923L199.462 33.0671H197.57L196.054 30.7495L195.409 31.4918V33.0671Z" fill="white"/>
<path d="M201.593 33.0671H200.152V26.9627H201.803V30.3103H201.833L204.4 26.9627H205.826V33.0671H204.175V29.7044H204.145L201.593 33.0671Z" fill="white"/>
<path d="M57.1898 22.6002H55.7638V16.4805H57.415V19.8433H57.445L59.9968 16.4805H61.4228V22.6002H59.7867V19.2374H59.7566L57.1898 22.6002Z" fill="white"/>
<path d="M64.455 22.6002H62.8188V16.4805H64.455V18.7072H66.6616V16.4805H68.2978V22.6002H66.6616V20.2826H64.455V22.6002Z" fill="white"/>
<path d="M69.6937 22.6153V16.5563H72.4107C72.8066 16.542 73.2009 16.6144 73.5665 16.7684C73.8535 16.8916 74.1023 17.0904 74.287 17.344C74.4392 17.5864 74.5199 17.8674 74.5199 18.1543C74.5199 18.4413 74.4392 18.7223 74.287 18.9647C74.1316 19.1849 73.9108 19.3493 73.6566 19.4343C73.8544 19.4918 74.0383 19.5898 74.197 19.7221C74.3842 19.8567 74.5383 20.0329 74.6473 20.2371C74.7715 20.453 74.8339 20.6995 74.8274 20.9491C74.8311 21.2563 74.7421 21.5575 74.5722 21.8125C74.3852 22.0833 74.1245 22.2937 73.8217 22.4184C73.4501 22.5901 73.0444 22.6731 72.6359 22.6607L69.6937 22.6153ZM72.2756 18.8587C72.4276 18.8673 72.5773 18.8187 72.6959 18.7224C72.7471 18.6711 72.7869 18.6096 72.8128 18.5417C72.8386 18.4738 72.85 18.4012 72.846 18.3285C72.8488 18.2583 72.8368 18.1883 72.811 18.123C72.7851 18.0578 72.7459 17.9988 72.6959 17.9499C72.5773 17.8535 72.4276 17.805 72.2756 17.8135H71.33V18.8587H72.2756ZM72.5008 21.2975C72.6712 21.3032 72.8374 21.2437 72.9661 21.1309C73.0233 21.0732 73.0687 21.0047 73.0996 20.9293C73.1306 20.854 73.1465 20.7731 73.1465 20.6916C73.1465 20.61 73.1306 20.5292 73.0996 20.4538C73.0687 20.3784 73.0233 20.31 72.9661 20.2523C72.8374 20.1395 72.6712 20.08 72.5008 20.0857H71.33V21.2975H72.5008Z" fill="white"/>
<path d="M80.5315 22.6002H75.8181V16.4805H80.4565V17.965H77.4693V18.8284H79.766V20.222H77.4693V21.1157H80.5315V22.6002Z" fill="white"/>
<path d="M82.7531 22.3426C82.2495 22.0737 81.8289 21.6702 81.5373 21.1763C81.2504 20.6798 81.1001 20.115 81.102 19.5403C81.0983 18.9702 81.2488 18.4098 81.5373 17.9195C81.8286 17.4215 82.2489 17.013 82.7531 16.738C83.282 16.4471 83.8771 16.3009 84.4794 16.3139C85.0343 16.3026 85.5842 16.4219 86.0855 16.6623C86.5089 16.8668 86.8908 17.1494 87.2113 17.4954L86.1155 18.5255C85.8948 18.3249 85.6472 18.1566 85.38 18.0256C85.0972 17.8972 84.7893 17.8351 84.4794 17.8438C84.1762 17.8401 83.8769 17.913 83.6088 18.0559C83.3587 18.2069 83.1518 18.4209 83.0083 18.6769C82.861 18.9404 82.7836 19.2378 82.7836 19.5403C82.7836 19.8429 82.861 20.1403 83.0083 20.4037C83.1518 20.6598 83.3587 20.8738 83.6088 21.0248C83.8744 21.1743 84.1754 21.2477 84.4794 21.2369C84.799 21.2455 85.1167 21.1835 85.41 21.0551C85.6819 20.9259 85.9305 20.7518 86.1456 20.5401L87.2413 21.5701C86.9149 21.92 86.5284 22.2074 86.1006 22.4184C85.5935 22.6575 85.039 22.7766 84.4794 22.7668C83.8771 22.7798 83.282 22.6336 82.7531 22.3426Z" fill="white"/>
<path d="M90.919 22.6002H89.2678V18.0559H87.5866V16.4805H92.6002V18.0559H90.919V22.6002Z" fill="white"/>
<path d="M94.8818 22.6002H93.4708V16.4805H95.107V19.8433H95.137L97.7038 16.4805H99.1298V22.6002H97.4787V19.2374H97.4486L94.8818 22.6002Z" fill="white"/>
<path d="M106.605 23.9028H104.969V22.6002H100.511V16.4805H102.147V21.0248H104.188V16.4805H105.825V21.0248H106.605V23.9028Z" fill="white"/>
<path d="M108.902 22.6002H107.476V16.4805H109.112V19.8433H109.142L111.709 16.4805H113.135V22.6002H111.484V19.2374H111.454L108.902 22.6002Z" fill="white"/>
<path d="M115.777 22.3427C115.281 22.0684 114.866 21.6658 114.576 21.1763C114.274 20.6854 114.118 20.1178 114.126 19.5404C114.121 18.968 114.277 18.406 114.576 17.9196C114.865 17.4254 115.28 17.0176 115.777 16.738C116.31 16.4592 116.902 16.3136 117.503 16.3136C118.104 16.3136 118.696 16.4592 119.229 16.738C119.726 17.0176 120.141 17.4254 120.43 17.9196C120.729 18.406 120.885 18.968 120.88 19.5404C120.888 20.1178 120.732 20.6854 120.43 21.1763C120.14 21.6658 119.725 22.0684 119.229 22.3427C118.696 22.6215 118.104 22.7671 117.503 22.7671C116.902 22.7671 116.31 22.6215 115.777 22.3427ZM118.359 21.0097C118.727 20.7996 119.007 20.4614 119.146 20.0581C119.286 19.6549 119.275 19.2143 119.116 18.8186C118.956 18.423 118.66 18.0994 118.281 17.9083C117.903 17.7173 117.468 17.6718 117.059 17.7805C116.65 17.8892 116.294 18.1445 116.058 18.4988C115.821 18.8531 115.721 19.2821 115.775 19.7056C115.83 20.1291 116.035 20.5181 116.353 20.7999C116.671 21.0818 117.08 21.2371 117.503 21.2369C117.803 21.2411 118.099 21.1625 118.359 21.0097Z" fill="white"/>
<path d="M123.597 22.6002H121.946V16.4805H123.597V18.7072H125.804V16.4805H127.44V22.6002H125.804V20.2826H123.597V22.6002Z" fill="white"/>
<path d="M130.472 22.6002H128.821V16.4805H130.472V18.7072H132.679V16.4805H134.315V22.6002H132.679V20.2826H130.472V22.6002Z" fill="white"/>
<path d="M137.002 22.3427C136.506 22.0684 136.092 21.6658 135.801 21.1763C135.505 20.6838 135.354 20.1163 135.366 19.5403C135.357 18.9695 135.508 18.4076 135.801 17.9195C136.091 17.4253 136.505 17.0176 137.002 16.738C137.532 16.451 138.126 16.305 138.728 16.3139C139.33 16.303 139.925 16.4491 140.454 16.738C140.956 17.0172 141.375 17.4247 141.67 17.9195C141.959 18.4098 142.109 18.9702 142.106 19.5403C142.113 20.1157 141.963 20.6819 141.672 21.1764C141.38 21.6709 140.959 22.0746 140.454 22.3427C139.925 22.6316 139.33 22.7777 138.728 22.7668C138.126 22.7757 137.532 22.6297 137.002 22.3427ZM139.584 21.0097C139.838 20.8649 140.05 20.6561 140.199 20.4037C140.347 20.1403 140.424 19.8429 140.424 19.5403C140.424 19.2378 140.347 18.9404 140.199 18.6769C140.05 18.4245 139.838 18.2157 139.584 18.071C139.324 17.9182 139.029 17.8396 138.728 17.8438C138.428 17.8418 138.133 17.9202 137.873 18.071C137.621 18.2229 137.412 18.4381 137.267 18.6957C137.123 18.9532 137.046 19.2442 137.046 19.5403C137.046 19.8364 137.123 20.1275 137.267 20.385C137.412 20.6425 137.621 20.8578 137.873 21.0097C138.133 21.1604 138.428 21.2388 138.728 21.2369C139.029 21.2411 139.324 21.1625 139.584 21.0097Z" fill="white"/>
<path d="M144.567 22.6153H143.141V16.5563H144.793V19.919L147.344 16.5563H148.8V22.6153H147.164V19.2525L144.567 22.6153ZM144.823 15.4505C144.686 15.3144 144.578 15.1514 144.505 14.9717C144.433 14.792 144.398 14.5992 144.402 14.4053H145.483C145.478 14.4722 145.487 14.5395 145.51 14.6024C145.534 14.6653 145.57 14.7221 145.618 14.7689C145.666 14.8154 145.722 14.8516 145.784 14.875C145.846 14.8985 145.912 14.9088 145.978 14.9052C146.042 14.9085 146.106 14.8981 146.166 14.8746C146.225 14.851 146.279 14.815 146.324 14.7689C146.377 14.7259 146.419 14.6701 146.445 14.6065C146.471 14.543 146.481 14.4738 146.474 14.4053H147.54C147.547 14.5997 147.514 14.7936 147.441 14.9738C147.369 15.1541 147.259 15.3167 147.119 15.4505C146.968 15.5949 146.788 15.7058 146.591 15.7762C146.395 15.8466 146.186 15.875 145.978 15.8595C145.555 15.8809 145.14 15.7341 144.823 15.4505Z" fill="white"/>
<path d="M62.2484 10.4973V13.3753H60.6123V12.0575H57.415V13.3753H55.7338V10.4973H56.079C56.3611 10.2426 56.5644 9.91127 56.6644 9.54295C56.8546 9.00846 56.9511 8.44464 56.9496 7.87674V5.95299H61.4529V10.4973H62.2484ZM59.8317 10.4973V7.46775H58.6008V7.81613C58.5994 8.38519 58.5186 8.95122 58.3607 9.49751C58.273 9.84947 58.0972 10.1729 57.8503 10.4367L59.8317 10.4973Z" fill="white"/>
<path d="M67.8324 12.118H63.1191V6.01358H67.7424V7.49804H64.7552V8.36145H67.0519V9.75503H64.7552V10.6487H67.8324V12.118Z" fill="white"/>
<path d="M70.5944 12.118H68.9432V6.01358H74.3471V12.118H72.7109V7.58893H70.5944V12.118Z" fill="white"/>
<path d="M76.8239 12.1181H75.0976L77.3643 6.05903H79.2106L81.4922 12.1181H79.751L79.3457 10.9517H77.2292L76.8239 12.1181ZM78.3249 7.57379L77.7095 9.57325H78.9854L78.355 7.57379H78.3249Z" fill="white"/>
<path d="M82.2277 12.1332V6.07418H84.9447C85.3536 6.06098 85.7584 6.16048 86.1155 6.36199C86.4449 6.53545 86.7203 6.7976 86.9111 7.11936C87.1048 7.44905 87.2036 7.82675 87.1963 8.20999C87.2033 8.59797 87.1046 8.98044 86.9111 9.31575C86.7203 9.63752 86.4449 9.89967 86.1155 10.0731C85.7556 10.2673 85.3528 10.3663 84.9447 10.3609H83.8639V12.1938L82.2277 12.1332ZM84.8696 8.81588C85.0484 8.81266 85.2196 8.74247 85.35 8.61896C85.4164 8.56208 85.4698 8.49129 85.5064 8.41151C85.543 8.33173 85.562 8.24488 85.562 8.15697C85.562 8.06905 85.543 7.9822 85.5064 7.90242C85.4698 7.82264 85.4164 7.75183 85.35 7.69495C85.2196 7.57144 85.0484 7.50127 84.8696 7.49805H83.8639V8.81588H84.8696Z" fill="white"/>
<path d="M90.919 12.118H89.2678V7.58893H87.5866V6.01358H92.6002V7.58893H90.919V12.118Z" fill="white"/>
<path d="M94.1163 12.1181H92.39L94.6566 6.05903H96.518L98.7846 12.1181H97.0433L96.6381 10.9517H94.5215L94.1163 12.1181ZM95.6173 7.57379L95.0019 9.57325H96.2628L95.6323 7.57379H95.6173Z" fill="white"/>
<path d="M101.156 12.118H99.5201V6.01358H101.006L102.853 8.36145H102.868L104.729 6.01358H106.17V12.118H104.534V8.54322H104.489L102.853 10.6487L101.186 8.54322H101.156V12.118Z" fill="white"/>
<path d="M112.264 12.118H107.551V6.01358H112.189V7.49804H109.202V8.36145H111.484V9.75503H109.202V10.6487H112.264V12.118Z" fill="white"/>
<path d="M115.041 12.118H113.39V6.01358H115.041V8.24027H117.248V6.01358H118.884V12.118H117.248V9.81562H115.041V12.118Z" fill="white"/>
<path d="M123.072 12.118H121.436V7.58893H119.755V6.01358H124.768V7.58893H123.072V12.118Z" fill="white"/>
</svg>
