<svg width="153" height="112" viewBox="0 0 153 112" fill="none" xmlns="http://www.w3.org/2000/svg">
<path fill-rule="evenodd" clip-rule="evenodd" d="M84.4258 56.7692C89.3797 57.4088 91.4527 58.5617 97.6493 57.4003C100.513 56.8646 103.22 55.706 105.282 53.9304C106.045 53.274 106.603 52.3791 107.263 51.9948C107.397 59.5603 92.37 60.5281 84.4258 56.7692ZM79.7243 53.0608C80.8464 53.4647 81.6066 53.9837 83.0344 54.4044C87.0626 55.5938 91.5789 55.4508 95.5286 54.41C100.48 53.1028 104.536 50.8559 105.234 45.3325C106.014 46.1937 106.542 47.8628 106.157 49.4365C104.432 56.4943 85.8873 58.6767 79.7243 53.0608ZM89.663 46.2414C92.1596 45.2007 95.4893 44.073 98.8387 44.4573C100.283 44.6228 102.079 45.2428 102.138 46.6818C102.196 48.1181 100.62 49.0466 99.7448 49.6048C99.8963 48.8418 102.067 45.5738 96.9929 45.3662C93.6295 45.2259 91.6379 46.1488 89.663 46.2414ZM73.6904 47.5234C74.3497 48.0816 75.4437 49.4084 75.7634 50.6006C76.4535 53.1674 74.6947 52.7718 73.365 53.2487C72.1504 53.6835 72.574 54.9038 70.3972 55.4928C68.6524 55.9613 67.9623 55.6247 66.3185 56.6065C62.4193 58.9348 62.9691 60.0007 59.3897 57.737C56.6968 56.0286 53.4792 60.2672 50.1327 55.4031C49.7736 54.8841 49.4819 54.166 49.0667 53.7929C48.1635 52.9738 46.6459 52.9654 46.3766 51.2767C45.7454 47.327 55.7963 45.2708 59.3701 43.6074C60.5763 43.0463 61.7292 42.4544 62.7194 41.7503C64.1136 40.7573 64.31 40.2748 64.7027 39.0602L64.8963 38.5833C65.1599 41.3548 62.7447 42.8359 60.9859 43.8823C56.3433 46.6454 41.7144 49.3748 52.2786 55.6106C55.3643 57.4312 57.7206 54.5699 59.9676 56.4831C62.812 58.9067 62.6437 56.6682 65.937 55.2039C67.1684 54.6569 68.428 54.6401 69.8137 54.3792C71.6819 54.0257 71.407 53.0832 72.6441 52.5137C74.4506 51.6806 76.9472 53.1309 73.6904 47.5234ZM91.9296 33.3236C91.7865 32.5073 91.4443 32.7879 90.9254 32.0669C89.405 29.9462 89.2254 26.451 84.5155 29.4778C78.7005 33.217 72.6665 29.8985 68.5598 26.5716C66.1137 24.5912 63.561 22.333 61.5245 20.0132L51.0584 8.14732C50.4833 7.5919 41.4367 -3.30616 42.9066 5.75732C43.1058 6.98878 43.5041 8.16695 43.9838 9.19364C44.4915 10.282 45.2349 11.1993 45.2012 12.5739C45.1619 14.1363 44.7299 14.9582 45.5322 16.3636C46.1774 17.4969 47.1087 17.7522 46.9965 19.2866C46.7665 22.3723 48.977 22.2545 51.3193 24.0021C53.3867 25.5505 51.3894 27.7414 54.1918 30.0304C56.7837 32.1455 63.1907 34.1792 64.4278 37.7895C62.6325 36.1064 62.5848 35.5537 59.8442 34.1203C55.3166 31.7556 52.0767 31.4722 51.4455 26.4089C51.2547 24.8801 50.6937 24.9054 49.5099 24.3135C48.4496 23.7833 47.7988 23.2643 46.9713 22.765C46.0007 23.1353 43.4227 25.2897 42.6878 25.9236L40.8588 27.7863C40.2445 28.3276 39.6302 29.1327 39.1533 29.7667C30.8612 40.8779 35.7001 52.8167 44.9123 59.7875C56.4892 68.5509 75.222 71.9395 92.3476 67.5186C99.7644 65.6026 105.139 62.7863 110.831 58.3036C111.215 57.9978 111.409 57.7257 111.771 57.406C123.367 47.1811 121.207 32.6953 109.251 23.6514C101.237 17.5923 92.3728 15.4828 81.7412 14.3159C82.1901 16.6638 86.064 23.0063 84.1845 27.1074L83.7329 27.7778C84.2294 25.0484 83.7161 22.5069 82.8437 20.173C81.1914 15.7437 79.4719 12.226 77.4746 8.08841C72.1224 -3.00601 70.8376 3.60015 71.4744 6.53996C72.6918 12.1839 70.7366 10.8234 71.1967 13.8895C71.4042 15.2612 72.1504 15.8166 71.6118 17.4044C71.2107 18.5881 70.5094 19.3708 70.846 20.9389C71.3369 23.2251 73.2753 24.5912 72.9499 27.3571C72.6189 26.8577 72.689 26.451 72.3945 25.7609C71.0396 22.5995 68.9637 21.7355 70.1026 18.0888C70.6973 16.1925 70.5963 16.4758 70.0606 14.6721C66.9693 14.6721 63.3562 16.0298 60.523 16.5179C61.0251 17.5951 64.4979 20.9837 65.3787 21.8674L66.9356 23.4972C67.5303 24.1031 68.0296 24.406 68.7141 25.0765C69.9259 26.2631 72.8489 28.2575 74.5095 29.0121C76.1001 29.7302 77.8196 30.238 79.859 30.1482C82.2967 30.0416 82.9839 29.4637 84.653 28.4342C87.4077 26.7371 89.5424 27.4889 90.6392 30.5185C91.405 32.642 91.3181 31.7584 91.7192 32.6139C93.2564 32.4625 96.0251 31.3965 97.8317 32.1819C96.3309 32.1847 93.9577 32.3474 92.6337 33.0291C91.809 33.4583 92.6842 33.2227 91.391 33.6799C90.2016 34.1007 88.0164 36.2326 87.4918 37.3294C87.576 36.6029 88.339 35.4864 88.7149 35.0123C89.1609 34.4513 90.2016 33.7023 90.4316 33.2928C85.3627 32.7205 84.6979 37.6127 81.587 41.8205C79.3064 44.9062 74.748 47.1699 69.1601 46.8277C69.7043 46.3508 70.313 46.449 71.2668 46.2779C75.6036 45.5009 78.8603 43.3044 81.1998 39.5932C83.5309 35.8904 85.9153 30.123 91.9296 33.3236Z" fill="white"/>
<path fill-rule="evenodd" clip-rule="evenodd" d="M91.9269 33.3237C85.9126 30.123 83.5282 35.8904 81.1971 39.5932C78.8576 43.3045 75.6008 45.5009 71.2641 46.2779C70.3103 46.4491 69.7016 46.3509 69.1574 46.8278C74.7453 47.17 79.3037 44.9062 81.5843 41.8205C84.6952 37.6128 85.36 32.7206 90.4289 33.2929C90.1989 33.7024 89.1582 34.4514 88.7122 35.0124C88.3363 35.4865 87.5733 36.6029 87.4891 37.3295C88.0137 36.2327 90.1989 34.1007 91.3883 33.68C92.6815 33.2227 91.8063 33.4584 92.631 33.0292C93.955 32.3475 96.3282 32.1848 97.8289 32.182C96.0224 31.3966 93.2537 32.4625 91.7165 32.614C91.3154 31.7584 91.4023 32.6421 90.6365 30.5185C89.5397 27.489 87.405 26.7372 84.6503 28.4343C82.9812 29.4638 82.294 30.0417 79.8563 30.1483C77.8169 30.238 76.0974 29.7303 74.5068 29.0122C72.8462 28.2576 69.9232 26.2631 68.7114 25.0765C68.0269 24.4061 67.5276 24.1031 66.9329 23.4972L65.376 21.8674C64.4952 20.9838 61.0224 17.5952 60.5203 16.518C63.3535 16.0299 66.9666 14.6722 70.0579 14.6722C70.5936 16.4759 70.6946 16.1926 70.0999 18.0889C68.961 21.7356 71.0369 22.5996 72.3918 25.761C72.6863 26.4511 72.6162 26.8578 72.9472 27.3571C73.2726 24.5912 71.3342 23.2251 70.8433 20.9389C70.5067 19.3708 71.208 18.5882 71.6091 17.4044C72.1477 15.8167 71.4015 15.2613 71.1939 13.8896C70.7339 10.8235 72.6891 12.184 71.4716 6.54003C70.8349 3.60022 72.1196 -3.00594 77.4719 8.08848C79.4692 12.2261 81.1887 15.7438 82.841 20.1731C83.7134 22.507 84.2267 25.0485 83.7302 27.7779L84.1818 27.1075C86.0613 23.0063 82.1874 16.6639 81.7385 14.3159C92.3701 15.4829 101.234 17.5924 109.249 23.6515C121.204 32.6954 123.364 47.1812 111.768 57.406C111.406 57.7258 111.212 57.9979 110.828 58.3037C105.136 62.7863 99.7617 65.6027 92.3448 67.5186C75.2193 71.9396 56.4865 68.5509 44.9096 59.7876C35.6974 52.8168 30.8585 40.878 39.1506 29.7668C39.6275 29.1328 40.2418 28.3277 40.8561 27.7863L42.6851 25.9237C43.42 25.2897 45.998 23.1354 46.9686 22.7651C47.7961 23.2644 48.4469 23.7834 49.5072 24.3135C50.691 24.9054 51.252 24.8802 51.4428 26.409C52.074 31.4723 55.3139 31.7556 59.8414 34.1204C62.5821 35.5538 62.6298 36.1064 64.4251 37.7895C63.188 34.1793 56.781 32.1455 54.1891 30.0304C51.3867 27.7414 53.384 25.5506 51.3166 24.0022C48.9743 22.2545 46.7638 22.3724 46.9938 19.2867C47.106 17.7523 46.1747 17.497 45.5295 16.3637C44.7272 14.9583 45.1592 14.1364 45.1985 12.5739C45.2322 11.1994 44.4888 10.2821 43.9811 9.19371C43.5014 8.16702 43.1031 6.98885 42.9039 5.75739C41.434 -3.30609 50.4806 7.59197 51.0557 8.14739L61.5218 20.0132C63.5583 22.3331 66.111 24.5912 68.5571 26.5717C72.6638 29.8986 78.6977 33.2171 84.5128 29.4778C89.2227 26.4511 89.4022 29.9463 90.9226 32.067C91.4416 32.7879 91.7838 32.5074 91.9269 33.3237ZM69.7128 13.4996C67.9091 13.7773 66.212 13.94 64.4335 14.2682C62.7336 14.5852 60.9635 15.121 59.3702 15.3847C58.3211 14.0607 57.1345 12.7871 56.0096 11.4266L49.8579 4.48104C49.496 4.136 49.2323 3.95647 48.8901 3.60863C47.9111 2.61 46.3374 0.809085 44.5169 0.419168C39.1001 -0.733754 41.6079 7.58075 42.7552 10.0689C43.1872 11.0058 43.7426 11.5444 43.7398 12.6974C43.737 15.0088 43.4285 16.1505 45.3556 18.3918C45.7652 18.8715 45.7567 18.9276 45.6894 19.7018C45.6193 20.5041 45.7764 20.7426 45.7427 21.4102C43.0189 23.1073 39.4395 26.2379 37.6021 28.726C32.0086 36.2972 31.355 43.5738 36.0397 52.0369C37.6414 54.9347 39.1366 56.2952 41.2657 58.4019L43.4032 60.2925C49.3333 64.8004 56.0545 67.7963 65.1376 69.4289C74.0468 71.0279 84.712 70.8203 93.279 68.6267C101.551 66.5088 107.667 63.5353 113.779 58.2364C116.335 56.0231 118.769 52.3483 120.102 49.1112C121.785 45.024 121.889 40.202 120.453 35.9578C119.549 33.2844 117.992 30.6392 116.27 28.5493C114.203 26.0443 114.441 26.5661 112.435 24.6614C111.863 24.12 111.005 23.4664 110.295 22.9418C102.696 17.3567 91.5566 13.7325 81.1943 13.2892C80.4285 10.456 76.2909 2.24252 74.2011 0.615528C72.1954 -0.946947 69.5529 0.444416 69.6988 5.02805C69.8054 8.29606 71.2108 7.54428 70.0186 11.292C69.7437 12.1616 69.7661 12.5767 69.7128 13.4996Z" fill="#465C8E"/>
<path fill-rule="evenodd" clip-rule="evenodd" d="M0.976562 105.702L6.42419 105.694L6.75239 91.6962L7.55186 93.1156C7.92214 93.7944 8.18583 94.3022 8.56733 94.953C9.47059 96.507 14.0346 105.077 14.5732 105.683L19.8132 105.702L25.9116 94.751C26.5232 93.5981 27.317 92.3161 27.9229 91.1884L27.9482 105.708L33.3706 105.702L33.4154 85.5725L25.6508 85.595C24.9607 86.3552 24.0827 88.1336 23.5048 89.1631C22.5875 90.8013 17.5999 99.3515 17.2942 100.266C16.9996 100.033 17.1792 100.229 16.9239 99.8788C16.8145 99.7302 16.7724 99.632 16.6742 99.4412C16.5059 99.113 16.3741 98.8437 16.1525 98.4566C15.7654 97.7722 15.5325 97.2925 15.1454 96.6164C14.4329 95.3794 9.43412 85.7212 8.86467 85.5921L0.976562 85.595V105.702Z" fill="#435C92"/>
<path fill-rule="evenodd" clip-rule="evenodd" d="M95.4991 89.9964L99.7013 98.064L91.0361 97.9939L95.4991 89.9964ZM83.7315 105.711C84.4608 105.711 85.2014 105.728 85.9279 105.725C87.8663 105.719 86.8368 104.676 88.7976 102.272L101.968 102.294C102.318 102.751 102.661 103.458 102.997 104.095C104.17 106.317 103.469 105.722 110.052 105.688C109.758 104.656 108.08 101.806 107.446 100.659C106.529 98.9925 105.671 97.3992 104.745 95.6404C102.972 92.2658 101.14 88.8378 99.3703 85.5811L91.4513 85.6147C90.8762 86.2571 80.8478 105.054 80.7188 105.705L83.7315 105.711Z" fill="#F6813E"/>
<path fill-rule="evenodd" clip-rule="evenodd" d="M126.845 100.367C126.5 101.845 125.614 101.966 124.023 101.966C122.452 101.966 120.882 101.963 119.311 101.963C117.74 101.963 116.789 101.924 116.407 100.44C116.149 99.4271 116.169 96.9418 116.376 95.8982C116.693 94.3245 117.65 94.3217 119.313 94.3245C120.882 94.3273 122.452 94.3161 124.018 94.3245C125.53 94.3301 126.657 94.4339 126.915 95.9207C127.098 96.967 127.07 99.4019 126.845 100.367ZM111.305 111.933L116.242 112L116.239 103.385C116.55 103.666 116.309 103.391 116.567 103.781C116.932 104.331 117.005 104.645 117.729 105.15C119.176 106.162 124.775 105.859 126.705 105.786C131.561 105.604 131.934 102.712 131.934 98.1844C131.931 89.9513 129.892 90.3384 120.32 90.5488C119.339 90.5684 118.399 90.6919 117.656 91.1491C116.548 91.8307 116.606 92.633 116.13 93.0201L116.225 90.7227L111.35 90.6806L111.305 111.933Z" fill="#435C92"/>
<path fill-rule="evenodd" clip-rule="evenodd" d="M42.4808 94.4623C43.2943 94.2323 50.9019 94.2435 51.6032 94.5633C52.6859 95.057 52.5569 97.0683 52.5429 98.5213C52.5261 100.087 52.6383 101.615 51.2357 101.946C50.2847 102.174 42.7697 102.16 41.9983 101.817C40.9211 101.341 41.0081 99.2956 41.0165 97.8509C41.0277 95.7751 41.0473 94.8662 42.4808 94.4623ZM36.0822 100.033C36.632 106.945 40.9351 105.902 48.6493 105.905C56.501 105.905 57.8979 104.732 57.4659 96.5157C57.0901 89.4298 53.0675 90.5463 44.9577 90.5463C41.8552 90.5463 39.0725 90.3359 37.3193 92.2294C35.8185 93.848 35.8802 97.5339 36.0822 100.033Z" fill="#435C92"/>
<path fill-rule="evenodd" clip-rule="evenodd" d="M64.3413 99.7554L74.698 99.7329L74.7317 105.699L79.6519 105.669L79.6239 90.6807L74.7148 90.7115L74.7036 96.2573H64.3049L64.3021 90.6891L59.3594 90.6835L59.4071 105.699L64.3077 105.708L64.3413 99.7554Z" fill="#435C92"/>
<path fill-rule="evenodd" clip-rule="evenodd" d="M152.05 105.702V103.938L146.319 97.5142C146.538 97.0962 146.359 97.4216 146.678 97.0093C146.83 96.8157 146.894 96.7288 147.049 96.538C147.298 96.2238 147.52 96.005 147.744 95.7245C148.216 95.1298 148.617 94.6586 149.127 94.0891L151.831 90.6949C150.751 90.6472 149.613 90.678 148.524 90.678C145.98 90.6752 146.479 90.2516 144.215 93.04L142.65 94.7034C142.078 94.1536 141.643 93.5337 141.065 92.8885C138.406 89.915 140.597 90.7902 133.603 90.6696C133.909 91.4298 135.744 93.385 136.378 94.2181C137.231 95.3374 138.448 96.4903 139.161 97.6825C138.67 98.482 132.591 104.889 132.195 105.711C133.539 105.674 134.925 105.697 136.271 105.702C139.194 105.717 138.336 105.209 140.044 103.467L142.855 100.44C143.475 100.92 143.5 101.203 143.991 101.714C144.569 102.319 144.692 102.563 145.161 103.06L147.5 105.7L152.05 105.702Z" fill="#435C92"/>
<path fill-rule="evenodd" clip-rule="evenodd" d="M73.6899 47.5236C76.9467 53.1311 74.4501 51.6808 72.6436 52.5139C71.4065 53.0834 71.6814 54.0259 69.8132 54.3794C68.4275 54.6402 67.1679 54.6571 65.9365 55.2041C62.6432 56.6684 62.8115 58.9069 59.9671 56.4832C57.7202 54.5701 55.3638 57.4314 52.2781 55.6108C41.7139 49.375 56.3428 46.6455 60.9854 43.8824C62.7442 42.8361 65.1594 41.355 64.8958 38.5835L64.7022 39.0604C64.3095 40.275 64.1131 40.7575 62.7189 41.7505C61.7287 42.4546 60.5758 43.0465 59.3696 43.6075C55.7958 45.271 45.7449 47.3272 46.3761 51.2769C46.6454 52.9656 48.163 52.974 49.0662 53.7931C49.4814 54.1662 49.7731 54.8843 50.1322 55.4032C53.4787 60.2674 56.6963 56.0288 59.3892 57.7371C62.9686 60.0009 62.4188 58.9349 66.318 56.6067C67.9618 55.6248 68.6519 55.9615 70.3967 55.493C72.5735 54.9039 72.1499 53.6837 73.3645 53.2489C74.6942 52.772 76.453 53.1675 75.7629 50.6008C75.4432 49.4086 74.3492 48.0818 73.6899 47.5236Z" fill="#455A8D"/>
<path fill-rule="evenodd" clip-rule="evenodd" d="M79.7227 53.0607C85.8856 58.6767 104.431 56.4942 106.156 49.4365C106.54 47.8628 106.013 46.1937 105.233 45.3325C104.534 50.8559 100.478 53.1028 95.5269 54.41C91.5773 55.4507 87.061 55.5938 83.0328 54.4044C81.6049 53.9836 80.8447 53.4647 79.7227 53.0607Z" fill="#ED8244"/>
<path fill-rule="evenodd" clip-rule="evenodd" d="M84.4258 56.7693C92.37 60.5282 107.397 59.5604 107.263 51.9949C106.603 52.3792 106.045 53.274 105.282 53.9304C103.22 55.7061 100.513 56.8646 97.6493 57.4004C91.4527 58.5618 89.3797 57.4088 84.4258 56.7693Z" fill="#EC844B"/>
<path fill-rule="evenodd" clip-rule="evenodd" d="M89.6602 46.2416C91.635 46.1491 93.6267 45.2262 96.99 45.3664C102.065 45.574 99.8934 48.842 99.7419 49.605C100.617 49.0468 102.194 48.1183 102.135 46.682C102.076 45.243 100.28 44.623 98.8358 44.4575C95.4865 44.0732 92.1567 45.2009 89.6602 46.2416Z" fill="#EC844B"/>
</svg>
