<svg width="230" height="51" viewBox="0 0 230 51" fill="none" xmlns="http://www.w3.org/2000/svg">
<path fill-rule="evenodd" clip-rule="evenodd" d="M24.2288 32.0929L15.2378 50.0749H29.4736L42.2109 24.9749L31.5965 5.2446H18.2348L31.8462 32.0929H24.2288Z" fill="#E7392B"/>
<path fill-rule="evenodd" clip-rule="evenodd" d="M17.986 18.107L26.977 0.124879H12.7412L0.00390625 25.2249L10.6183 44.9552H23.98L10.3686 18.107H17.986Z" fill="#0072B0"/>
<path fill-rule="evenodd" clip-rule="evenodd" d="M169.708 23.2266V13.9858H170.332C171.581 13.9858 172.33 14.7351 172.33 16.6082V20.6042C172.33 22.2276 171.956 23.1017 170.582 23.2266H169.708ZM164.713 38.7112H169.708V27.7221H172.83C175.202 27.5973 177.45 25.2246 177.45 21.9779V15.859C177.575 11.3634 174.578 9.98981 172.081 9.86493H164.713V38.7112Z" fill="#0072B0"/>
<path fill-rule="evenodd" clip-rule="evenodd" d="M178.576 15.3596C178.701 11.9879 181.074 9.36555 183.946 9.36555H186.069C188.941 9.36555 191.438 12.1128 191.438 15.6093V33.0919C191.438 36.4636 189.066 39.3357 186.069 39.3357H183.946C181.323 39.3357 179.076 36.9631 178.701 34.0909L178.576 33.2168V15.3596ZM184.695 14.1108C184.531 14.126 184.371 14.1735 184.225 14.2507C184.08 14.3278 183.951 14.4331 183.846 14.5604C183.74 14.6877 183.663 14.837 183.621 14.9974C183.589 15.1582 183.589 15.3237 183.621 15.4845V33.2168C183.589 33.3776 183.589 33.543 183.621 33.7038C183.666 33.863 183.743 34.0115 183.846 34.1409C183.953 34.2645 184.079 34.37 184.22 34.4531C184.368 34.53 184.529 34.5767 184.695 34.5904H184.82C184.986 34.5767 185.147 34.53 185.294 34.4531C185.435 34.37 185.562 34.2645 185.669 34.1409C185.772 34.0115 185.849 33.863 185.894 33.7038C185.926 33.543 185.926 33.3776 185.894 33.2168V15.3596C185.926 15.1988 185.926 15.0333 185.894 14.8726C185.852 14.7121 185.775 14.5628 185.669 14.4355C185.564 14.3082 185.435 14.2029 185.289 14.1258C185.144 14.0486 184.984 14.0011 184.82 13.986H184.695V14.1108Z" fill="#0072B0"/>
<path fill-rule="evenodd" clip-rule="evenodd" d="M57.195 38.7112H52.9492V9.86493H60.4418L62.19 28.5963H62.6895L64.4378 9.86493H71.9303V38.7112H67.3099V17.6072H66.9353L64.5627 38.7112H59.8174L57.5696 17.6072H57.195V38.7112Z" fill="#0072B0"/>
<path fill-rule="evenodd" clip-rule="evenodd" d="M79.3022 14.1109C79.4775 14.1127 79.651 14.1465 79.8142 14.2108C79.9739 14.2814 80.115 14.3883 80.2263 14.523C80.3509 14.6477 80.4413 14.8026 80.4885 14.9725C80.5239 15.1414 80.5239 15.3157 80.4885 15.4845V33.2169C80.5205 33.3776 80.5205 33.5431 80.4885 33.7039C80.4433 33.863 80.3669 34.0116 80.2637 34.1409C80.1689 34.266 80.0551 34.3756 79.9266 34.4656C79.7791 34.5425 79.6178 34.5892 79.452 34.603H79.3272C79.1614 34.5892 79.0001 34.5425 78.8526 34.4656C78.7117 34.3825 78.5852 34.2771 78.478 34.1534C78.3749 34.0241 78.2985 33.8755 78.2532 33.7164C78.2213 33.5556 78.2213 33.3901 78.2532 33.2293V15.3596C78.2219 15.2072 78.2219 15.05 78.2532 14.8976C78.3075 14.7474 78.3878 14.6079 78.4905 14.4855C78.598 14.3724 78.7249 14.2793 78.8651 14.2108C79.0114 14.1484 79.1682 14.1145 79.3272 14.1109H79.3022ZM73.1833 15.3596V33.2169L73.3082 33.8412C73.3989 35.2024 73.9806 36.4843 74.9452 37.4489C75.9098 38.4136 77.1918 38.9953 78.5529 39.086H80.6758C83.548 39.086 86.0455 36.3387 86.0455 32.8422V15.3596C86.0455 11.988 83.6728 9.11586 80.6758 9.11586H78.5529C77.0527 9.32791 75.6807 10.0782 74.6928 11.227C73.7049 12.3758 73.1684 13.8446 73.1833 15.3596Z" fill="#0072B0"/>
<path fill-rule="evenodd" clip-rule="evenodd" d="M87.1681 15.3596C87.2929 11.9879 89.6656 9.36555 92.5377 9.36555H94.6606C97.5327 9.36555 99.9054 12.1128 99.9054 15.6093V20.3546H94.6606V15.4845C94.6926 15.3237 94.6926 15.1582 94.6606 14.9974C94.6188 14.837 94.5421 14.6877 94.4358 14.5604C94.331 14.4331 94.202 14.3278 94.0562 14.2507C93.9105 14.1735 93.7509 14.126 93.5867 14.1108H93.4618C93.296 14.1246 93.1347 14.1713 92.9873 14.2482C92.8459 14.3307 92.7193 14.4362 92.6126 14.5604C92.5111 14.6908 92.4348 14.839 92.3879 14.9974C92.3559 15.1582 92.3559 15.3237 92.3879 15.4845V33.2168C92.3559 33.3776 92.3559 33.543 92.3879 33.7038C92.4373 33.8612 92.5134 34.0091 92.6126 34.1409C92.7225 34.2617 92.8486 34.3668 92.9873 34.4531C93.1347 34.53 93.296 34.5767 93.4618 34.5904H93.5867C93.7524 34.5767 93.9137 34.53 94.0612 34.4531C94.2021 34.37 94.3287 34.2645 94.4358 34.1409C94.539 34.0115 94.6154 33.863 94.6606 33.7038C94.6926 33.543 94.6926 33.3776 94.6606 33.2168V27.4725H99.9054V33.0919C99.9054 36.4636 97.5327 39.3357 94.6606 39.3357H92.5377C89.9153 39.3357 87.6676 36.9631 87.2929 34.0909L87.1681 33.2168V15.3596Z" fill="#0072B0"/>
<path fill-rule="evenodd" clip-rule="evenodd" d="M108.896 9.86493H113.891V38.7112H109.396V23.6012L106.149 38.7112H100.904V9.86493H105.65V24.7251L108.896 9.86493Z" fill="#0072B0"/>
<path fill-rule="evenodd" clip-rule="evenodd" d="M122.883 9.86493H128.128V38.7112H122.883V25.0998H120.261V38.7112H115.016V9.86493H120.261V20.3545H122.883V9.86493Z" fill="#0072B0"/>
<path fill-rule="evenodd" clip-rule="evenodd" d="M133.997 9.86493H128.753L131.875 21.6032V23.7261L128.878 38.7112H133.873L136.495 25.5993H136.745V38.7112H141.865V25.5993H142.239L144.737 38.7112H150.106L146.735 23.9759V21.853L149.981 9.86493H144.862L142.114 21.3535V9.86493H136.745V21.4784L133.997 9.86493Z" fill="#0072B0"/>
<path fill-rule="evenodd" clip-rule="evenodd" d="M150.728 38.7112V9.86493H163.59V38.7112H158.345V14.4853H155.973V38.7112H150.728Z" fill="#0072B0"/>
<path fill-rule="evenodd" clip-rule="evenodd" d="M202.925 14.1107V9.86493H192.81V38.7112H202.925V34.2157H197.68V24.85H202.925V20.3545H197.68V14.1107H202.925Z" fill="#0072B0"/>
<path fill-rule="evenodd" clip-rule="evenodd" d="M203.678 38.7112V9.86493H208.798V21.7281H209.297L212.17 9.86493H217.289L213.668 22.1027V23.1017L217.04 38.7112H211.92L209.173 25.0998H208.798V38.7112H203.678Z" fill="#0072B0"/>
<path fill-rule="evenodd" clip-rule="evenodd" d="M217.536 9.86493H229.774V14.4853H226.402V38.7112H221.033V14.4853H217.536V9.86493Z" fill="#0072B0"/>
<path d="M55.1989 6.99304H53.076V0.124879H54.9492V3.24677L55.9482 0.124879H58.0711V6.99304H56.1979V3.74627L55.1989 6.99304Z" fill="#0072B0"/>
<path d="M63.189 6.99304H61.0661V0.124879H63.189V2.62239H63.9383V0.124879H66.0612V6.99304H63.9383V3.74627H63.189V6.99304Z" fill="#0072B0"/>
<path d="M71.6845 4.37038H73.8074V5.99376C73.7938 6.13656 73.7558 6.27597 73.695 6.40585C73.6299 6.53397 73.5409 6.64843 73.4327 6.74302C73.1657 6.89539 72.8658 6.98106 72.5586 6.99277C72.152 7.10271 71.7301 7.1449 71.3098 7.11765C70.7183 7.11615 70.1299 7.03209 69.5616 6.86789C69.0621 6.61814 68.8123 6.36839 68.8123 5.86889V1.24849C68.8231 1.10521 68.8613 0.965317 68.9247 0.836401C68.9865 0.706211 69.076 0.591126 69.187 0.499237C69.4404 0.299741 69.7419 0.170529 70.0611 0.12461C70.8857 -0.0376306 71.734 -0.0376306 72.5586 0.12461C72.8595 0.225939 73.1518 0.351215 73.4327 0.499237C73.5437 0.591126 73.6332 0.706211 73.695 0.836401C73.7584 0.965317 73.7966 1.10521 73.8074 1.24849V2.49725H71.6845V1.49824C71.6845 1.24849 71.5596 0.99874 71.3098 0.99874C71.0601 0.99874 70.9352 1.12362 70.9352 1.49824V5.61914C70.9352 5.86889 71.0601 6.11864 71.3098 6.11864C71.5596 6.11864 71.6845 5.99376 71.6845 5.61914V4.37038Z" fill="#0072B0"/>
<path d="M79.9233 1.1237V6.99285H77.8004V1.1237H76.4268V0.249571H81.297V1.24858L79.9233 1.1237Z" fill="#0072B0"/>
<path d="M86.0422 7.11773H83.9193V0.249571H85.7925V3.37146L86.7915 0.249571H88.9144V7.11773H87.0412V3.87096L86.0422 7.11773Z" fill="#0072B0"/>
<path d="M95.1572 1.24858V7.11773H93.0343V1.24858H91.6607V0.249571H96.5308V1.24858H95.1572Z" fill="#0072B0"/>
<path d="M100.528 7.11773L100.902 5.99385L98.9044 0.249571H101.027L101.652 3.87096L102.401 0.249571H104.274L102.401 7.11773H100.528Z" fill="#0072B0"/>
<path d="M110.269 1.24858V7.11773H108.146V1.24858H106.773V0.249571H111.643V1.24858H110.269Z" fill="#0072B0"/>
<path d="M58.072 42.957V43.8311H54.4506V49.95H53.4516V42.957H58.072Z" fill="#0072B0"/>
<path d="M61.07 46.3288L64.4417 42.9572H65.6904L62.8183 45.7044L65.8153 49.8253H64.5666L62.1939 46.3288L61.07 47.3278V49.8253H60.071V42.8323H61.07V46.3288Z" fill="#0072B0"/>
<path d="M73.6815 46.4535L72.6825 47.2027L73.6815 47.952V48.8261L72.183 47.5774V46.7032L73.6815 45.4545V46.4535ZM75.6795 46.4535L74.6805 47.2027L75.6795 47.952V48.8261L74.181 47.5774V46.7032L75.6795 45.4545V46.4535Z" fill="#0072B0"/>
<path d="M79.7975 42.957L81.7955 48.8261L83.7935 42.957H85.1671V49.95H84.293V44.0809L82.295 49.95H81.4209L79.4228 44.0809V49.95H78.5487V42.957H79.7975Z" fill="#0072B0"/>
<path d="M90.7863 50.2C90.3188 50.2136 89.8541 50.1241 89.4251 49.9378C88.9927 49.763 88.6046 49.4943 88.2888 49.1511C87.9615 48.793 87.7183 48.3663 87.577 47.9023C87.4308 47.4773 87.3755 47.0264 87.4146 46.5786C87.375 46.1104 87.4303 45.6389 87.577 45.1925C87.7314 44.7342 87.9731 44.3102 88.2888 43.9437C88.6122 43.6063 88.9982 43.3348 89.4251 43.1445C89.854 42.9553 90.3175 42.8576 90.7863 42.8576C91.255 42.8576 91.7186 42.9553 92.1474 43.1445C92.5744 43.3348 92.9603 43.6063 93.2838 43.9437C93.5994 44.3102 93.8411 44.7342 93.9956 45.1925C94.1423 45.6389 94.1975 46.1104 94.1579 46.5786C94.2043 47.0429 94.1489 47.5116 93.9956 47.9523C93.8542 48.4163 93.611 48.8429 93.2838 49.201C92.968 49.5442 92.5798 49.8129 92.1474 49.9877C91.7185 50.174 91.2537 50.2636 90.7863 50.25V50.2ZM90.7863 43.7065C89.2878 43.7065 88.4136 44.8304 88.4136 46.4537C88.4136 48.0771 89.2878 49.3259 90.7863 49.3259C92.2848 49.3259 93.1589 48.0771 93.1589 46.4537C93.1589 44.8304 92.2848 43.7065 90.7863 43.7065Z" fill="#0072B0"/>
<path d="M101.529 45.08C101.442 44.6286 101.193 44.2245 100.83 43.9436C100.473 43.6725 100.028 43.5434 99.5809 43.5815C98.3321 43.5815 97.3331 44.4556 97.3331 46.3287C97.3331 47.9521 97.9575 49.2009 99.5809 49.2009C100.205 49.2009 101.204 48.9511 101.579 47.3277H102.403C102.354 48.0845 102.02 48.7944 101.467 49.3133C100.906 49.8266 100.166 50.1001 99.4061 50.075C97.7827 50.075 96.2842 49.076 96.2842 46.3287C96.2354 45.8704 96.2822 45.4069 96.4215 44.9676C96.5616 44.5324 96.7919 44.1317 97.0975 43.7917C97.403 43.4517 97.777 43.1801 98.1948 42.9946C98.6152 42.8065 99.0704 42.7087 99.5309 42.7073C100.204 42.6545 100.873 42.856 101.404 43.2722C101.936 43.6884 102.293 44.2889 102.403 44.9551H101.529V45.08Z" fill="#0072B0"/>
<path d="M105.774 48.7013L109.395 42.957H110.519V49.95H109.52V44.3306L106.023 49.95H104.899V42.957H105.898L105.774 48.7013Z" fill="#0072B0"/>
<path d="M114.015 45.8291H117.637V42.957H118.636V49.95H117.637V46.7032H114.015V49.95H113.016V42.957H114.015V45.8291Z" fill="#0072B0"/>
<path d="M125.877 42.957V46.3286L128.749 42.957H129.997L127.5 45.8291L130.122 49.95H128.998L126.876 46.4535L126.001 47.4525V49.95H125.127V47.4525L124.253 46.4535L122.13 49.95H121.006L123.629 45.8291L121.131 42.957H122.38L125.252 46.3286V42.957H125.877Z" fill="#0072B0"/>
<path d="M137.743 42.957V49.95H136.744V43.8311H133.122V49.95H132.123V42.957H137.743Z" fill="#0072B0"/>
<path d="M141.361 49.95H140.362V42.957H143.484C143.75 42.9426 144.016 42.9844 144.265 43.0797C144.514 43.175 144.74 43.3217 144.929 43.5102C145.117 43.6987 145.264 43.9247 145.359 44.1737C145.455 44.4226 145.496 44.6888 145.482 44.955C145.509 45.2287 145.48 45.5051 145.395 45.7667C145.305 46.0315 145.161 46.2742 144.97 46.4785C144.781 46.6794 144.551 46.837 144.296 46.9405C144.037 47.0415 143.761 47.0882 143.484 47.0779H141.236V49.95H141.361ZM141.361 46.2038H143.234C144.108 46.2038 144.608 45.8292 144.608 44.955C144.608 44.0809 143.984 43.8311 143.234 43.8311H141.361V46.2038Z" fill="#0072B0"/>
<path d="M151.103 50.1998C150.635 50.2134 150.17 50.1238 149.741 49.9375C149.309 49.7587 148.92 49.4888 148.601 49.1462C148.282 48.8035 148.041 48.3963 147.893 47.952C147.746 47.51 147.691 47.0425 147.731 46.5784C147.695 46.1109 147.754 45.6409 147.904 45.1968C148.055 44.7526 148.293 44.3433 148.605 43.9934C148.928 43.656 149.314 43.3845 149.741 43.1942C150.17 43.005 150.634 42.9073 151.103 42.9073C151.571 42.9073 152.035 43.005 152.464 43.1942C152.891 43.3845 153.277 43.656 153.6 43.9934C153.916 44.3598 154.157 44.7839 154.312 45.2422C154.459 45.6886 154.514 46.1601 154.474 46.6283C154.521 47.0926 154.465 47.5613 154.312 48.0019C154.17 48.466 153.927 48.8926 153.6 49.2507C153.279 49.5893 152.892 49.8575 152.462 50.0381C152.032 50.2187 151.569 50.3078 151.103 50.2997V50.1998ZM151.103 43.7062C149.604 43.7062 148.73 44.8301 148.73 46.4535C148.73 48.0769 149.604 49.3256 151.103 49.3256C152.601 49.3256 153.475 48.0769 153.475 46.4535C153.475 44.8301 152.601 43.7062 151.103 43.7062Z" fill="#0072B0"/>
<path d="M161.97 49.95H156.85V42.957H161.97V43.8311H157.849V45.8291H161.595V46.7032H157.849V49.0759H162.094L161.97 49.95Z" fill="#0072B0"/>
<path d="M165.214 46.3288L168.586 42.9572H169.835L166.963 45.7044L169.96 49.8253H168.711L166.338 46.3288L165.214 47.3278V49.8253H164.215V42.8323H165.214V46.3288Z" fill="#0072B0"/>
<path d="M175.08 49.95H174.081V43.8311H171.708V42.957H177.327V43.8311H174.955L175.08 49.95Z" fill="#0072B0"/>
<path d="M180.201 46.8284V47.7025L178.703 48.9512V48.0771L179.702 47.3279L178.703 46.5786V45.7045L180.201 46.8284ZM182.199 46.8284V47.7025L180.701 48.9512V48.0771L181.7 47.3279L180.701 46.5786V45.7045L182.199 46.8284Z" fill="#0072B0"/>
</svg>
